<svg aria-roledescription="er" role="graphics-document document" viewBox="0 0 1238.880859375 1121.75" style="max-width: 1238.880859375px;" class="erDiagram" xmlns="http://www.w3.org/2000/svg" width="100%" id="mermaidSvgId"><style>#mermaidSvgId{font-family:"trebuchet ms",verdana,arial,sans-serif;font-size:16px;fill:#0a0f14;}@keyframes edge-animation-frame{from{stroke-dashoffset:0;}}@keyframes dash{to{stroke-dashoffset:0;}}#mermaidSvgId .edge-animation-slow{stroke-dasharray:9,5!important;stroke-dashoffset:900;animation:dash 50s linear infinite;stroke-linecap:round;}#mermaidSvgId .edge-animation-fast{stroke-dasharray:9,5!important;stroke-dashoffset:900;animation:dash 20s linear infinite;stroke-linecap:round;}#mermaidSvgId .error-icon{fill:#ffebee;}#mermaidSvgId .error-text{fill:#c62828;stroke:#c62828;}#mermaidSvgId .edge-thickness-normal{stroke-width:1px;}#mermaidSvgId .edge-thickness-thick{stroke-width:3.5px;}#mermaidSvgId .edge-pattern-solid{stroke-dasharray:0;}#mermaidSvgId .edge-thickness-invisible{stroke-width:0;fill:none;}#mermaidSvgId .edge-pattern-dashed{stroke-dasharray:3;}#mermaidSvgId .edge-pattern-dotted{stroke-dasharray:2;}#mermaidSvgId .marker{fill:#0a0f14;stroke:#0a0f14;}#mermaidSvgId .marker.cross{stroke:#0a0f14;}#mermaidSvgId svg{font-family:"trebuchet ms",verdana,arial,sans-serif;font-size:16px;}#mermaidSvgId p{margin:0;}#mermaidSvgId .entityBox{fill:#ffffff;stroke:#1a468b;}#mermaidSvgId .relationshipLabelBox{fill:#bbd6f2;opacity:0.7;background-color:#bbd6f2;}#mermaidSvgId .relationshipLabelBox rect{opacity:0.5;}#mermaidSvgId .labelBkg{background-color:rgba(187, 214, 242, 0.5);}#mermaidSvgId .edgeLabel .label{fill:#1a468b;font-size:14px;}#mermaidSvgId .label{font-family:"trebuchet ms",verdana,arial,sans-serif;color:#0a0f14;}#mermaidSvgId .edge-pattern-dashed{stroke-dasharray:8,8;}#mermaidSvgId .node rect,#mermaidSvgId .node circle,#mermaidSvgId .node ellipse,#mermaidSvgId .node polygon{fill:#ffffff;stroke:#1a468b;stroke-width:1px;}#mermaidSvgId .relationshipLine{stroke:#0a0f14;stroke-width:1;fill:none;}#mermaidSvgId .marker{fill:none!important;stroke:#0a0f14!important;stroke-width:1;}#mermaidSvgId :root{--mermaid-font-family:"trebuchet ms",verdana,arial,sans-serif;}</style><g><defs><marker orient="auto" markerHeight="18" markerWidth="18" refY="9" refX="0" class="marker onlyOne er" id="mermaidSvgId_er-onlyOneStart"><path d="M9,0 L9,18 M15,0 L15,18"></path></marker></defs><defs><marker orient="auto" markerHeight="18" markerWidth="18" refY="9" refX="18" class="marker onlyOne er" id="mermaidSvgId_er-onlyOneEnd"><path d="M3,0 L3,18 M9,0 L9,18"></path></marker></defs><defs><marker orient="auto" markerHeight="18" markerWidth="30" refY="9" refX="0" class="marker zeroOrOne er" id="mermaidSvgId_er-zeroOrOneStart"><circle r="6" cy="9" cx="21" fill="white"></circle><path d="M9,0 L9,18"></path></marker></defs><defs><marker orient="auto" markerHeight="18" markerWidth="30" refY="9" refX="30" class="marker zeroOrOne er" id="mermaidSvgId_er-zeroOrOneEnd"><circle r="6" cy="9" cx="9" fill="white"></circle><path d="M21,0 L21,18"></path></marker></defs><defs><marker orient="auto" markerHeight="36" markerWidth="45" refY="18" refX="18" class="marker oneOrMore er" id="mermaidSvgId_er-oneOrMoreStart"><path d="M0,18 Q 18,0 36,18 Q 18,36 0,18 M42,9 L42,27"></path></marker></defs><defs><marker orient="auto" markerHeight="36" markerWidth="45" refY="18" refX="27" class="marker oneOrMore er" id="mermaidSvgId_er-oneOrMoreEnd"><path d="M3,9 L3,27 M9,18 Q27,0 45,18 Q27,36 9,18"></path></marker></defs><defs><marker orient="auto" markerHeight="36" markerWidth="57" refY="18" refX="18" class="marker zeroOrMore er" id="mermaidSvgId_er-zeroOrMoreStart"><circle r="6" cy="18" cx="48" fill="white"></circle><path d="M0,18 Q18,0 36,18 Q18,36 0,18"></path></marker></defs><defs><marker orient="auto" markerHeight="36" markerWidth="57" refY="18" refX="39" class="marker zeroOrMore er" id="mermaidSvgId_er-zeroOrMoreEnd"><circle r="6" cy="18" cx="9" fill="white"></circle><path d="M21,18 Q39,0 57,18 Q39,36 21,18"></path></marker></defs><g class="root"><g class="clusters"></g><g class="edgePaths"><path marker-end="url(#mermaidSvgId_er-zeroOrMoreEnd)" marker-start="url(#mermaidSvgId_er-onlyOneStart)" style="undefined;" class="edge-thickness-normal edge-pattern-solid relationshipLine" id="id_entity-CUSTOMER-0_entity-ORDER-1_0" d="M801.986,218.536L789.283,229.947C776.58,241.358,751.174,264.179,738.471,287.319C725.768,310.458,725.768,333.917,725.768,345.646L725.768,357.375"></path><path marker-end="url(#mermaidSvgId_er-oneOrMoreEnd)" marker-start="url(#mermaidSvgId_er-onlyOneStart)" style="undefined;" class="edge-thickness-normal edge-pattern-solid relationshipLine" id="id_entity-ORDER-1_entity-ORDER_ITEM-2_1" d="M628.585,509.375L613.587,521.104C598.589,532.833,568.592,556.292,553.594,579.75C538.596,603.208,538.596,626.667,538.596,638.396L538.596,650.125"></path><path marker-end="url(#mermaidSvgId_er-zeroOrMoreEnd)" marker-start="url(#mermaidSvgId_er-onlyOneStart)" style="undefined;" class="edge-thickness-normal edge-pattern-solid relationshipLine" id="id_entity-ORDER_ITEM-2_entity-PRODUCT-3_2" d="M438.725,802.125L423.312,813.854C407.899,825.583,377.072,849.042,349.175,870.802C321.277,892.563,296.307,912.626,283.823,922.658L271.338,932.689"></path><path marker-end="url(#mermaidSvgId_er-zeroOrMoreEnd)" marker-start="url(#mermaidSvgId_er-onlyOneStart)" style="undefined;" class="edge-thickness-normal edge-pattern-solid relationshipLine" id="id_entity-SUPPLIER-4_entity-PRODUCT-3_3" d="M122.73,821L122.73,829.583C122.73,838.167,122.73,855.333,125.155,872.5C127.579,889.667,132.428,906.833,134.853,915.417L137.277,924"></path><path marker-end="url(#mermaidSvgId_er-zeroOrMoreEnd)" marker-start="url(#mermaidSvgId_er-onlyOneStart)" style="undefined;" class="edge-thickness-normal edge-pattern-solid relationshipLine" id="id_entity-CUSTOMER-0_entity-PAYMENT-5_4" d="M1017.486,218.536L1030.189,229.947C1042.893,241.358,1068.299,264.179,1081.002,284.173C1093.705,304.167,1093.705,321.333,1093.705,329.917L1093.705,338.5"></path><path marker-end="url(#mermaidSvgId_er-zeroOrMoreEnd)" marker-start="url(#mermaidSvgId_er-onlyOneStart)" style="undefined;" class="edge-thickness-normal edge-pattern-solid relationshipLine" id="id_entity-ORDER-1_entity-SHIPMENT-6_5" d="M822.95,509.375L837.948,521.104C852.946,532.833,882.943,556.292,897.941,579.75C912.939,603.208,912.939,626.667,912.939,638.396L912.939,650.125"></path><path marker-end="url(#mermaidSvgId_er-oneOrMoreEnd)" marker-start="url(#mermaidSvgId_er-oneOrMoreStart)" style="undefined;" class="edge-thickness-normal edge-pattern-dashed relationshipLine" id="id_entity-ORDER_ITEM-2_entity-DISCOUNT-7_6" d="M559.179,802.125L562.355,813.854C565.532,825.583,571.885,849.042,575.062,872.5C578.238,895.958,578.238,919.417,578.238,931.146L578.238,942.875"></path></g><g class="edgeLabels"><g transform="translate(725.767578125, 287)" class="edgeLabel"><g transform="translate(-24.84375, -11.5)" class="label"><g><rect height="23" width="49.6875" y="-1" x="-2" style="" class="background"></rect><text style="" y="-10.1"><tspan dy="1.1em" y="-0.1em" x="0" class="text-outer-tspan"><tspan font-weight="normal" class="text-inner-tspan" font-style="normal">places</tspan></tspan></text></g></g></g><g transform="translate(538.595703125, 579.75)" class="edgeLabel"><g transform="translate(-32.15234375, -11.5)" class="label"><g><rect height="23" width="64.3046875" y="-1" x="-2" style="" class="background"></rect><text style="" y="-10.1"><tspan dy="1.1em" y="-0.1em" x="0" class="text-outer-tspan"><tspan font-weight="normal" class="text-inner-tspan" font-style="normal">contains</tspan></tspan></text></g></g></g><g transform="translate(346.24609375, 872.5)" class="edgeLabel"><g transform="translate(-31.6640625, -11.5)" class="label"><g><rect height="23" width="63.328125" y="-1" x="-2" style="" class="background"></rect><text style="" y="-10.1"><tspan dy="1.1em" y="-0.1em" x="0" class="text-outer-tspan"><tspan font-weight="normal" class="text-inner-tspan" font-style="normal">includes</tspan></tspan></text></g></g></g><g transform="translate(122.73046875, 872.5)" class="edgeLabel"><g transform="translate(-31.02734375, -11.5)" class="label"><g><rect height="23" width="62.0546875" y="-1" x="-2" style="" class="background"></rect><text style="" y="-10.1"><tspan dy="1.1em" y="-0.1em" x="0" class="text-outer-tspan"><tspan font-weight="normal" class="text-inner-tspan" font-style="normal">supplies</tspan></tspan></text></g></g></g><g transform="translate(1093.705078125, 287)" class="edgeLabel"><g transform="translate(-24.7421875, -11.5)" class="label"><g><rect height="23" width="49.484375" y="-1" x="-2" style="" class="background"></rect><text style="" y="-10.1"><tspan dy="1.1em" y="-0.1em" x="0" class="text-outer-tspan"><tspan font-weight="normal" class="text-inner-tspan" font-style="normal">makes</tspan></tspan></text></g></g></g><g transform="translate(912.939453125, 579.75)" class="edgeLabel"><g transform="translate(-19.84765625, -11.5)" class="label"><g><rect height="23" width="39.6953125" y="-1" x="-2" style="" class="background"></rect><text style="" y="-10.1"><tspan dy="1.1em" y="-0.1em" x="0" class="text-outer-tspan"><tspan font-weight="normal" class="text-inner-tspan" font-style="normal">ships</tspan></tspan></text></g></g></g><g transform="translate(578.23828125, 872.5)" class="edgeLabel"><g transform="translate(-27.62109375, -11.5)" class="label"><g><rect height="23" width="55.2421875" y="-1" x="-2" style="" class="background"></rect><text style="" y="-10.1"><tspan dy="1.1em" y="-0.1em" x="0" class="text-outer-tspan"><tspan font-weight="normal" class="text-inner-tspan" font-style="normal">applies</tspan></tspan></text></g></g></g></g><g class="nodes"><g transform="translate(909.736328125, 121.75)" id="entity-CUSTOMER-0" class="node default"><g style=""><path fill="#ffffff" stroke-width="0" stroke="none" d="M-107.75 -113.75 L107.75 -113.75 L107.75 113.75 L-107.75 113.75"></path><path fill="none" stroke-width="1.3" stroke="#1a468b" d="M-107.75 -113.75 C-62.091680335572505 -113.75, -16.43336067114501 -113.75, 107.75 -113.75 M-107.75 -113.75 C-42.84010783562523 -113.75, 22.069784328749535 -113.75, 107.75 -113.75 M107.75 -113.75 C107.75 -55.57710164733418, 107.75 2.5957967053316366, 107.75 113.75 M107.75 -113.75 C107.75 -35.0784488352095, 107.75 43.593102329581, 107.75 113.75 M107.75 113.75 C32.63537761626239 113.75, -42.47924476747522 113.75, -107.75 113.75 M107.75 113.75 C38.60027468803247 113.75, -30.54945062393506 113.75, -107.75 113.75 M-107.75 113.75 C-107.75 54.59315417726552, -107.75 -4.563691645468964, -107.75 -113.75 M-107.75 113.75 C-107.75 35.99549285583615, -107.75 -41.759014288327705, -107.75 -113.75"></path></g><g class="row-rect-odd" style=""><path fill="#ffffff" stroke-width="0" stroke="none" d="M-107.75 -0.5 L107.75 -0.5 L107.75 37.25 L-107.75 37.25"></path><path fill="none" stroke-width="1.3" stroke="#1a468b" d="M-107.75 -0.5 C-24.965098893626205 -0.5, 57.81980221274759 -0.5, 107.75 -0.5 M-107.75 -0.5 C-53.02137300891013 -0.5, 1.7072539821797363 -0.5, 107.75 -0.5 M107.75 -0.5 C107.75 11.619086487906873, 107.75 23.738172975813747, 107.75 37.25 M107.75 -0.5 C107.75 10.80168466637833, 107.75 22.10336933275666, 107.75 37.25 M107.75 37.25 C52.817302997165854 37.25, -2.1153940056682927 37.25, -107.75 37.25 M107.75 37.25 C29.32162622460214 37.25, -49.10674755079572 37.25, -107.75 37.25 M-107.75 37.25 C-107.75 24.052358188353704, -107.75 10.854716376707408, -107.75 -0.5 M-107.75 37.25 C-107.75 24.05582051685438, -107.75 10.861641033708757, -107.75 -0.5"></path></g><g class="row-rect-even" style=""><path fill="#ffffff" stroke-width="0" stroke="none" d="M-107.75 37.25 L107.75 37.25 L107.75 75 L-107.75 75"></path><path fill="none" stroke-width="1.3" stroke="#1a468b" d="M-107.75 37.25 C-37.10571660934296 37.25, 33.538566781314074 37.25, 107.75 37.25 M-107.75 37.25 C-52.48250727508797 37.25, 2.784985449824063 37.25, 107.75 37.25 M107.75 37.25 C107.75 48.86409031323514, 107.75 60.47818062647027, 107.75 75 M107.75 37.25 C107.75 48.87661223321985, 107.75 60.503224466439704, 107.75 75 M107.75 75 C62.32919813764861 75, 16.90839627529722 75, -107.75 75 M107.75 75 C26.59579438164303 75, -54.55841123671394 75, -107.75 75 M-107.75 75 C-107.75 66.7213765547701, -107.75 58.44275310954019, -107.75 37.25 M-107.75 75 C-107.75 65.26326838916071, -107.75 55.52653677832144, -107.75 37.25"></path></g><g class="row-rect-odd" style=""><path fill="#ffffff" stroke-width="0" stroke="none" d="M-107.75 75 L107.75 75 L107.75 112.75 L-107.75 112.75"></path><path fill="none" stroke-width="1.3" stroke="#1a468b" d="M-107.75 75 C-50.42024952620068 75, 6.909500947598644 75, 107.75 75 M-107.75 75 C-55.692424498513795 75, -3.6348489970275892 75, 107.75 75 M107.75 75 C107.75 87.30588528178353, 107.75 99.61177056356706, 107.75 112.75 M107.75 75 C107.75 86.55272872059264, 107.75 98.10545744118528, 107.75 112.75 M107.75 112.75 C37.24622353998785 112.75, -33.257552920024295 112.75, -107.75 112.75 M107.75 112.75 C23.565832506079005 112.75, -60.61833498784199 112.75, -107.75 112.75 M-107.75 112.75 C-107.75 101.07265069659108, -107.75 89.39530139318215, -107.75 75 M-107.75 112.75 C-107.75 97.66757279357003, -107.75 82.58514558714006, -107.75 75"></path></g><g class="row-rect-even" style=""><path fill="#ffffff" stroke-width="0" stroke="none" d="M-107.75 -76 L107.75 -76 L107.75 -38.25 L-107.75 -38.25"></path><path fill="none" stroke-width="1.3" stroke="#1a468b" d="M-107.75 -76 C-24.413146606988775 -76, 58.92370678602245 -76, 107.75 -76 M-107.75 -76 C-62.91255503336536 -76, -18.075110066730716 -76, 107.75 -76 M107.75 -76 C107.75 -67.13787498489538, 107.75 -58.27574996979075, 107.75 -38.25 M107.75 -76 C107.75 -62.29017598983173, 107.75 -48.58035197966346, 107.75 -38.25 M107.75 -38.25 C49.63016015497428 -38.25, -8.489679690051446 -38.25, -107.75 -38.25 M107.75 -38.25 C43.29595074227177 -38.25, -21.15809851545646 -38.25, -107.75 -38.25 M-107.75 -38.25 C-107.75 -46.53915699559896, -107.75 -54.828313991197916, -107.75 -76 M-107.75 -38.25 C-107.75 -46.56172434675225, -107.75 -54.8734486935045, -107.75 -76"></path></g><g style="" transform="translate(-38.375, -104.375)" class="label name"><g><rect style="stroke: none" class="background"></rect></g><text style="" y="-10.1"><tspan dy="1.1em" y="-0.1em" x="0" class="text-outer-tspan"><tspan font-weight="normal" class="text-inner-tspan" font-style="normal">CUSTOMER</tspan></tspan></text></g><g style="" transform="translate(-95.25, -66.625)" class="label attribute-type"><g><rect style="stroke: none" class="background"></rect></g><text style="" y="-10.1"><tspan dy="1.1em" y="-0.1em" x="0" class="text-outer-tspan"><tspan font-weight="normal" class="text-inner-tspan" font-style="normal">string</tspan></tspan></text></g><g style="" transform="translate(-29.875, -66.625)" class="label attribute-name"><g><rect style="stroke: none" class="background"></rect></g><text style="" y="-10.1"><tspan dy="1.1em" y="-0.1em" x="0" class="text-outer-tspan"><tspan font-weight="normal" class="text-inner-tspan" font-style="normal">customerId</tspan></tspan></text></g><g style="" transform="translate(74.875, -66.625)" class="label attribute-keys"><g><rect style="stroke: none" class="background"></rect></g><text style="" y="-10.1"><tspan dy="1.1em" y="-0.1em" x="0" class="text-outer-tspan"><tspan font-weight="normal" class="text-inner-tspan" font-style="normal">PK</tspan></tspan></text></g><g style="" transform="translate(120.25, -66.625)" class="label attribute-comment"><g><rect style="stroke: none" class="background"></rect></g><text style="" y="-10.1"><tspan dy="1.1em" y="-0.1em" x="0" class="text-outer-tspan"></tspan></text></g><g style="" transform="translate(-95.25, -28.875)" class="label attribute-type"><g><rect style="stroke: none" class="background"></rect></g><text style="" y="-10.1"><tspan dy="1.1em" y="-0.1em" x="0" class="text-outer-tspan"><tspan font-weight="normal" class="text-inner-tspan" font-style="normal">string</tspan></tspan></text></g><g style="" transform="translate(-29.875, -28.875)" class="label attribute-name"><g><rect style="stroke: none" class="background"></rect></g><text style="" y="-10.1"><tspan dy="1.1em" y="-0.1em" x="0" class="text-outer-tspan"><tspan font-weight="normal" class="text-inner-tspan" font-style="normal">firstName</tspan></tspan></text></g><g style="" transform="translate(74.875, -28.875)" class="label attribute-keys"><g><rect style="stroke: none" class="background"></rect></g><text style="" y="-10.1"><tspan dy="1.1em" y="-0.1em" x="0" class="text-outer-tspan"></tspan></text></g><g style="" transform="translate(120.25, -28.875)" class="label attribute-comment"><g><rect style="stroke: none" class="background"></rect></g><text style="" y="-10.1"><tspan dy="1.1em" y="-0.1em" x="0" class="text-outer-tspan"></tspan></text></g><g style="" transform="translate(-95.25, 8.875)" class="label attribute-type"><g><rect style="stroke: none" class="background"></rect></g><text style="" y="-10.1"><tspan dy="1.1em" y="-0.1em" x="0" class="text-outer-tspan"><tspan font-weight="normal" class="text-inner-tspan" font-style="normal">string</tspan></tspan></text></g><g style="" transform="translate(-29.875, 8.875)" class="label attribute-name"><g><rect style="stroke: none" class="background"></rect></g><text style="" y="-10.1"><tspan dy="1.1em" y="-0.1em" x="0" class="text-outer-tspan"><tspan font-weight="normal" class="text-inner-tspan" font-style="normal">lastName</tspan></tspan></text></g><g style="" transform="translate(74.875, 8.875)" class="label attribute-keys"><g><rect style="stroke: none" class="background"></rect></g><text style="" y="-10.1"><tspan dy="1.1em" y="-0.1em" x="0" class="text-outer-tspan"></tspan></text></g><g style="" transform="translate(120.25, 8.875)" class="label attribute-comment"><g><rect style="stroke: none" class="background"></rect></g><text style="" y="-10.1"><tspan dy="1.1em" y="-0.1em" x="0" class="text-outer-tspan"></tspan></text></g><g style="" transform="translate(-95.25, 46.625)" class="label attribute-type"><g><rect style="stroke: none" class="background"></rect></g><text style="" y="-10.1"><tspan dy="1.1em" y="-0.1em" x="0" class="text-outer-tspan"><tspan font-weight="normal" class="text-inner-tspan" font-style="normal">string</tspan></tspan></text></g><g style="" transform="translate(-29.875, 46.625)" class="label attribute-name"><g><rect style="stroke: none" class="background"></rect></g><text style="" y="-10.1"><tspan dy="1.1em" y="-0.1em" x="0" class="text-outer-tspan"><tspan font-weight="normal" class="text-inner-tspan" font-style="normal">email</tspan></tspan></text></g><g style="" transform="translate(74.875, 46.625)" class="label attribute-keys"><g><rect style="stroke: none" class="background"></rect></g><text style="" y="-10.1"><tspan dy="1.1em" y="-0.1em" x="0" class="text-outer-tspan"><tspan font-weight="normal" class="text-inner-tspan" font-style="normal">UK</tspan></tspan></text></g><g style="" transform="translate(120.25, 46.625)" class="label attribute-comment"><g><rect style="stroke: none" class="background"></rect></g><text style="" y="-10.1"><tspan dy="1.1em" y="-0.1em" x="0" class="text-outer-tspan"></tspan></text></g><g style="" transform="translate(-95.25, 84.375)" class="label attribute-type"><g><rect style="stroke: none" class="background"></rect></g><text style="" y="-10.1"><tspan dy="1.1em" y="-0.1em" x="0" class="text-outer-tspan"><tspan font-weight="normal" class="text-inner-tspan" font-style="normal">string</tspan></tspan></text></g><g style="" transform="translate(-29.875, 84.375)" class="label attribute-name"><g><rect style="stroke: none" class="background"></rect></g><text style="" y="-10.1"><tspan dy="1.1em" y="-0.1em" x="0" class="text-outer-tspan"><tspan font-weight="normal" class="text-inner-tspan" font-style="normal">phone</tspan></tspan></text></g><g style="" transform="translate(74.875, 84.375)" class="label attribute-keys"><g><rect style="stroke: none" class="background"></rect></g><text style="" y="-10.1"><tspan dy="1.1em" y="-0.1em" x="0" class="text-outer-tspan"></tspan></text></g><g style="" transform="translate(120.25, 84.375)" class="label attribute-comment"><g><rect style="stroke: none" class="background"></rect></g><text style="" y="-10.1"><tspan dy="1.1em" y="-0.1em" x="0" class="text-outer-tspan"></tspan></text></g><g class="divider"><path fill="none" stroke-width="1.3" stroke="#1a468b" d="M-107.75 -76 C-36.81815717933165 -76, 34.1136856413367 -76, 107.75 -76 M-107.75 -76 C-35.941793188105095 -76, 35.86641362378981 -76, 107.75 -76"></path></g><g class="divider"><path fill="none" stroke-width="1.3" stroke="#1a468b" d="M-42.375 -76 C-42.375 -7.04458986865059, -42.375 61.91082026269882, -42.375 113.75 M-42.375 -76 C-42.375 -36.1314545457474, -42.375 3.737090908505195, -42.375 113.75"></path></g><g class="divider"><path fill="none" stroke-width="1.3" stroke="#1a468b" d="M62.375 -76 C62.375 -27.792923033013757, 62.375 20.414153933972486, 62.375 113.75 M62.375 -76 C62.375 -11.258159500921735, 62.375 53.48368099815653, 62.375 113.75"></path></g><g class="divider"><path fill="none" stroke-width="1.3" stroke="#1a468b" d="M-107.75 -38.25 C-45.15172582256587 -38.25, 17.446548354868256 -38.25, 107.75 -38.25 M-107.75 -38.25 C-42.41855716038491 -38.25, 22.912885679230186 -38.25, 107.75 -38.25"></path></g><g class="divider"><path fill="none" stroke-width="1.3" stroke="#1a468b" d="M-107.75 -0.5 C-54.91585647028752 -0.5, -2.081712940575045 -0.5, 107.75 -0.5 M-107.75 -0.5 C-58.53951709971928 -0.5, -9.329034199438567 -0.5, 107.75 -0.5"></path></g><g class="divider"><path fill="none" stroke-width="1.3" stroke="#1a468b" d="M-107.75 37.25 C-22.41783356805189 37.25, 62.91433286389622 37.25, 107.75 37.25 M-107.75 37.25 C-47.807734746667585 37.25, 12.13453050666483 37.25, 107.75 37.25"></path></g><g class="divider"><path fill="none" stroke-width="1.3" stroke="#1a468b" d="M-107.75 75 C-42.66634621228643 75, 22.417307575427145 75, 107.75 75 M-107.75 75 C-31.359104690528838 75, 45.031790618942324 75, 107.75 75"></path></g><g class="divider"><path fill="none" stroke-width="1.3" stroke="#1a468b" d="M-107.75 -76 C-31.1446659847726 -76, 45.4606680304548 -76, 107.75 -76 M-107.75 -76 C-36.360681296668005 -76, 35.02863740666399 -76, 107.75 -76"></path></g></g><g transform="translate(725.767578125, 433.375)" id="entity-ORDER-1" class="node default"><g style=""><path fill="#ffffff" stroke-width="0" stroke="none" d="M-103.26171875 -76 L103.26171875 -76 L103.26171875 76 L-103.26171875 76"></path><path fill="none" stroke-width="1.3" stroke="#1a468b" d="M-103.26171875 -76 C-61.65783300894338 -76, -20.053947267886755 -76, 103.26171875 -76 M-103.26171875 -76 C-22.009463575123235 -76, 59.24279159975353 -76, 103.26171875 -76 M103.26171875 -76 C103.26171875 -37.7618745414886, 103.26171875 0.47625091702279576, 103.26171875 76 M103.26171875 -76 C103.26171875 -22.847135712782062, 103.26171875 30.305728574435875, 103.26171875 76 M103.26171875 76 C35.84289344132678 76, -31.57593186734644 76, -103.26171875 76 M103.26171875 76 C61.70437077915886 76, 20.147022808317715 76, -103.26171875 76 M-103.26171875 76 C-103.26171875 22.00234332495372, -103.26171875 -31.99531335009256, -103.26171875 -76 M-103.26171875 76 C-103.26171875 23.06519848992079, -103.26171875 -29.869603020158422, -103.26171875 -76"></path></g><g class="row-rect-odd" style=""><path fill="#ffffff" stroke-width="0" stroke="none" d="M-103.26171875 37.25 L103.26171875 37.25 L103.26171875 75 L-103.26171875 75"></path><path fill="none" stroke-width="1.3" stroke="#1a468b" d="M-103.26171875 37.25 C-33.54851706354269 37.25, 36.16468462291462 37.25, 103.26171875 37.25 M-103.26171875 37.25 C-44.60684389249188 37.25, 14.048030965016238 37.25, 103.26171875 37.25 M103.26171875 37.25 C103.26171875 48.31216685816603, 103.26171875 59.37433371633206, 103.26171875 75 M103.26171875 37.25 C103.26171875 51.981045219608845, 103.26171875 66.71209043921769, 103.26171875 75 M103.26171875 75 C27.89801239767793 75, -47.46569395464414 75, -103.26171875 75 M103.26171875 75 C51.33559602688203 75, -0.5905266962359406 75, -103.26171875 75 M-103.26171875 75 C-103.26171875 60.184647187821085, -103.26171875 45.36929437564218, -103.26171875 37.25 M-103.26171875 75 C-103.26171875 65.74273018838909, -103.26171875 56.48546037677819, -103.26171875 37.25"></path></g><g class="row-rect-even" style=""><path fill="#ffffff" stroke-width="0" stroke="none" d="M-103.26171875 -38.25 L103.26171875 -38.25 L103.26171875 -0.5 L-103.26171875 -0.5"></path><path fill="none" stroke-width="1.3" stroke="#1a468b" d="M-103.26171875 -38.25 C-53.88623869960095 -38.25, -4.510758649201904 -38.25, 103.26171875 -38.25 M-103.26171875 -38.25 C-56.105760136689746 -38.25, -8.949801523379492 -38.25, 103.26171875 -38.25 M103.26171875 -38.25 C103.26171875 -27.660007150045153, 103.26171875 -17.070014300090303, 103.26171875 -0.5 M103.26171875 -38.25 C103.26171875 -25.94071705597468, 103.26171875 -13.631434111949364, 103.26171875 -0.5 M103.26171875 -0.5 C26.494588341165596 -0.5, -50.27254206766881 -0.5, -103.26171875 -0.5 M103.26171875 -0.5 C30.32731927975908 -0.5, -42.60708019048184 -0.5, -103.26171875 -0.5 M-103.26171875 -0.5 C-103.26171875 -9.876120936269205, -103.26171875 -19.25224187253841, -103.26171875 -38.25 M-103.26171875 -0.5 C-103.26171875 -13.782361176030943, -103.26171875 -27.064722352061885, -103.26171875 -38.25"></path></g><g style="" transform="translate(-24.23828125, -66.625)" class="label name"><g><rect style="stroke: none" class="background"></rect></g><text style="" y="-10.1"><tspan dy="1.1em" y="-0.1em" x="0" class="text-outer-tspan"><tspan font-weight="normal" class="text-inner-tspan" font-style="normal">ORDER</tspan></tspan></text></g><g style="" transform="translate(-90.76171875, -28.875)" class="label attribute-type"><g><rect style="stroke: none" class="background"></rect></g><text style="" y="-10.1"><tspan dy="1.1em" y="-0.1em" x="0" class="text-outer-tspan"><tspan font-weight="normal" class="text-inner-tspan" font-style="normal">string</tspan></tspan></text></g><g style="" transform="translate(-25.38671875, -28.875)" class="label attribute-name"><g><rect style="stroke: none" class="background"></rect></g><text style="" y="-10.1"><tspan dy="1.1em" y="-0.1em" x="0" class="text-outer-tspan"><tspan font-weight="normal" class="text-inner-tspan" font-style="normal">orderId</tspan></tspan></text></g><g style="" transform="translate(71.83984375, -28.875)" class="label attribute-keys"><g><rect style="stroke: none" class="background"></rect></g><text style="" y="-10.1"><tspan dy="1.1em" y="-0.1em" x="0" class="text-outer-tspan"><tspan font-weight="normal" class="text-inner-tspan" font-style="normal">PK</tspan></tspan></text></g><g style="" transform="translate(115.76171875, -28.875)" class="label attribute-comment"><g><rect style="stroke: none" class="background"></rect></g><text style="" y="-10.1"><tspan dy="1.1em" y="-0.1em" x="0" class="text-outer-tspan"></tspan></text></g><g style="" transform="translate(-90.76171875, 8.875)" class="label attribute-type"><g><rect style="stroke: none" class="background"></rect></g><text style="" y="-10.1"><tspan dy="1.1em" y="-0.1em" x="0" class="text-outer-tspan"><tspan font-weight="normal" class="text-inner-tspan" font-style="normal">date</tspan></tspan></text></g><g style="" transform="translate(-25.38671875, 8.875)" class="label attribute-name"><g><rect style="stroke: none" class="background"></rect></g><text style="" y="-10.1"><tspan dy="1.1em" y="-0.1em" x="0" class="text-outer-tspan"><tspan font-weight="normal" class="text-inner-tspan" font-style="normal">orderDate</tspan></tspan></text></g><g style="" transform="translate(71.83984375, 8.875)" class="label attribute-keys"><g><rect style="stroke: none" class="background"></rect></g><text style="" y="-10.1"><tspan dy="1.1em" y="-0.1em" x="0" class="text-outer-tspan"></tspan></text></g><g style="" transform="translate(115.76171875, 8.875)" class="label attribute-comment"><g><rect style="stroke: none" class="background"></rect></g><text style="" y="-10.1"><tspan dy="1.1em" y="-0.1em" x="0" class="text-outer-tspan"></tspan></text></g><g style="" transform="translate(-90.76171875, 46.625)" class="label attribute-type"><g><rect style="stroke: none" class="background"></rect></g><text style="" y="-10.1"><tspan dy="1.1em" y="-0.1em" x="0" class="text-outer-tspan"><tspan font-weight="normal" class="text-inner-tspan" font-style="normal">string</tspan></tspan></text></g><g style="" transform="translate(-25.38671875, 46.625)" class="label attribute-name"><g><rect style="stroke: none" class="background"></rect></g><text style="" y="-10.1"><tspan dy="1.1em" y="-0.1em" x="0" class="text-outer-tspan"><tspan font-weight="normal" class="text-inner-tspan" font-style="normal">status</tspan></tspan></text></g><g style="" transform="translate(71.83984375, 46.625)" class="label attribute-keys"><g><rect style="stroke: none" class="background"></rect></g><text style="" y="-10.1"><tspan dy="1.1em" y="-0.1em" x="0" class="text-outer-tspan"></tspan></text></g><g style="" transform="translate(115.76171875, 46.625)" class="label attribute-comment"><g><rect style="stroke: none" class="background"></rect></g><text style="" y="-10.1"><tspan dy="1.1em" y="-0.1em" x="0" class="text-outer-tspan"></tspan></text></g><g class="divider"><path fill="none" stroke-width="1.3" stroke="#1a468b" d="M-103.26171875 -38.25 C-58.34704327233041 -38.25, -13.43236779466082 -38.25, 103.26171875 -38.25 M-103.26171875 -38.25 C-47.732094348467946 -38.25, 7.797530053064108 -38.25, 103.26171875 -38.25"></path></g><g class="divider"><path fill="none" stroke-width="1.3" stroke="#1a468b" d="M-37.88671875 -38.25 C-37.88671875 0.2891532707764384, -37.88671875 38.82830654155288, -37.88671875 76 M-37.88671875 -38.25 C-37.88671875 -2.413849743758277, -37.88671875 33.422300512483446, -37.88671875 76"></path></g><g class="divider"><path fill="none" stroke-width="1.3" stroke="#1a468b" d="M59.33984375 -38.25 C59.33984375 -1.6850690186554687, 59.33984375 34.87986196268906, 59.33984375 76 M59.33984375 -38.25 C59.33984375 4.984471774799772, 59.33984375 48.218943549599544, 59.33984375 76"></path></g><g class="divider"><path fill="none" stroke-width="1.3" stroke="#1a468b" d="M-103.26171875 -0.5 C-47.9631427920341 -0.5, 7.3354331659318035 -0.5, 103.26171875 -0.5 M-103.26171875 -0.5 C-46.79586203983531 -0.5, 9.669994670329373 -0.5, 103.26171875 -0.5"></path></g><g class="divider"><path fill="none" stroke-width="1.3" stroke="#1a468b" d="M-103.26171875 37.25 C-46.71010650143411 37.25, 9.841505747131777 37.25, 103.26171875 37.25 M-103.26171875 37.25 C-26.466106481362985 37.25, 50.32950578727403 37.25, 103.26171875 37.25"></path></g><g class="divider"><path fill="none" stroke-width="1.3" stroke="#1a468b" d="M-103.26171875 -38.25 C-56.85820444381951 -38.25, -10.45469013763902 -38.25, 103.26171875 -38.25 M-103.26171875 -38.25 C-38.072429928239444 -38.25, 27.116858893521112 -38.25, 103.26171875 -38.25"></path></g></g><g transform="translate(538.595703125, 726.125)" id="entity-ORDER_ITEM-2" class="node default"><g style=""><path fill="#ffffff" stroke-width="0" stroke="none" d="M-109.609375 -76 L109.609375 -76 L109.609375 76 L-109.609375 76"></path><path fill="none" stroke-width="1.3" stroke="#1a468b" d="M-109.609375 -76 C-34.05930128447568 -76, 41.49077243104864 -76, 109.609375 -76 M-109.609375 -76 C-47.01986655914618 -76, 15.56964188170764 -76, 109.609375 -76 M109.609375 -76 C109.609375 -19.069456377991727, 109.609375 37.861087244016545, 109.609375 76 M109.609375 -76 C109.609375 -31.916305658644333, 109.609375 12.167388682711334, 109.609375 76 M109.609375 76 C25.949567660851102 76, -57.710239678297796 76, -109.609375 76 M109.609375 76 C50.6276260970614 76, -8.354122805877196 76, -109.609375 76 M-109.609375 76 C-109.609375 42.105791213643094, -109.609375 8.211582427286189, -109.609375 -76 M-109.609375 76 C-109.609375 17.171636254002934, -109.609375 -41.65672749199413, -109.609375 -76"></path></g><g class="row-rect-odd" style=""><path fill="#ffffff" stroke-width="0" stroke="none" d="M-109.609375 37.25 L109.609375 37.25 L109.609375 75 L-109.609375 75"></path><path fill="none" stroke-width="1.3" stroke="#1a468b" d="M-109.609375 37.25 C-56.659420145775755 37.25, -3.70946529155151 37.25, 109.609375 37.25 M-109.609375 37.25 C-53.82600870621876 37.25, 1.957357587562484 37.25, 109.609375 37.25 M109.609375 37.25 C109.609375 47.70317718084413, 109.609375 58.15635436168826, 109.609375 75 M109.609375 37.25 C109.609375 46.9569291032694, 109.609375 56.6638582065388, 109.609375 75 M109.609375 75 C31.716752028290614 75, -46.17587094341877 75, -109.609375 75 M109.609375 75 C31.913239407984292 75, -45.782896184031415 75, -109.609375 75 M-109.609375 75 C-109.609375 63.811952423821545, -109.609375 52.62390484764309, -109.609375 37.25 M-109.609375 75 C-109.609375 66.22409722097373, -109.609375 57.44819444194746, -109.609375 37.25"></path></g><g class="row-rect-even" style=""><path fill="#ffffff" stroke-width="0" stroke="none" d="M-109.609375 -38.25 L109.609375 -38.25 L109.609375 -0.5 L-109.609375 -0.5"></path><path fill="none" stroke-width="1.3" stroke="#1a468b" d="M-109.609375 -38.25 C-54.38699352304393 -38.25, 0.8353879539121465 -38.25, 109.609375 -38.25 M-109.609375 -38.25 C-38.863160646650186 -38.25, 31.883053706699627 -38.25, 109.609375 -38.25 M109.609375 -38.25 C109.609375 -25.24557042208008, 109.609375 -12.24114084416016, 109.609375 -0.5 M109.609375 -38.25 C109.609375 -30.02740159876656, 109.609375 -21.80480319753312, 109.609375 -0.5 M109.609375 -0.5 C29.672639409417485 -0.5, -50.26409618116503 -0.5, -109.609375 -0.5 M109.609375 -0.5 C62.69782741951375 -0.5, 15.7862798390275 -0.5, -109.609375 -0.5 M-109.609375 -0.5 C-109.609375 -15.068848233023484, -109.609375 -29.637696466046968, -109.609375 -38.25 M-109.609375 -0.5 C-109.609375 -14.683387607003118, -109.609375 -28.866775214006235, -109.609375 -38.25"></path></g><g style="" transform="translate(-45.24609375, -66.625)" class="label name"><g><rect style="stroke: none" class="background"></rect></g><text style="" y="-10.1"><tspan dy="1.1em" y="-0.1em" x="0" class="text-outer-tspan"><tspan font-weight="normal" class="text-inner-tspan" font-style="normal">ORDER_ITEM</tspan></tspan></text></g><g style="" transform="translate(-97.109375, -28.875)" class="label attribute-type"><g><rect style="stroke: none" class="background"></rect></g><text style="" y="-10.1"><tspan dy="1.1em" y="-0.1em" x="0" class="text-outer-tspan"><tspan font-weight="normal" class="text-inner-tspan" font-style="normal">string</tspan></tspan></text></g><g style="" transform="translate(-31.734375, -28.875)" class="label attribute-name"><g><rect style="stroke: none" class="background"></rect></g><text style="" y="-10.1"><tspan dy="1.1em" y="-0.1em" x="0" class="text-outer-tspan"><tspan font-weight="normal" class="text-inner-tspan" font-style="normal">orderItemId</tspan></tspan></text></g><g style="" transform="translate(78.1875, -28.875)" class="label attribute-keys"><g><rect style="stroke: none" class="background"></rect></g><text style="" y="-10.1"><tspan dy="1.1em" y="-0.1em" x="0" class="text-outer-tspan"><tspan font-weight="normal" class="text-inner-tspan" font-style="normal">PK</tspan></tspan></text></g><g style="" transform="translate(122.109375, -28.875)" class="label attribute-comment"><g><rect style="stroke: none" class="background"></rect></g><text style="" y="-10.1"><tspan dy="1.1em" y="-0.1em" x="0" class="text-outer-tspan"></tspan></text></g><g style="" transform="translate(-97.109375, 8.875)" class="label attribute-type"><g><rect style="stroke: none" class="background"></rect></g><text style="" y="-10.1"><tspan dy="1.1em" y="-0.1em" x="0" class="text-outer-tspan"><tspan font-weight="normal" class="text-inner-tspan" font-style="normal">int</tspan></tspan></text></g><g style="" transform="translate(-31.734375, 8.875)" class="label attribute-name"><g><rect style="stroke: none" class="background"></rect></g><text style="" y="-10.1"><tspan dy="1.1em" y="-0.1em" x="0" class="text-outer-tspan"><tspan font-weight="normal" class="text-inner-tspan" font-style="normal">quantity</tspan></tspan></text></g><g style="" transform="translate(78.1875, 8.875)" class="label attribute-keys"><g><rect style="stroke: none" class="background"></rect></g><text style="" y="-10.1"><tspan dy="1.1em" y="-0.1em" x="0" class="text-outer-tspan"></tspan></text></g><g style="" transform="translate(122.109375, 8.875)" class="label attribute-comment"><g><rect style="stroke: none" class="background"></rect></g><text style="" y="-10.1"><tspan dy="1.1em" y="-0.1em" x="0" class="text-outer-tspan"></tspan></text></g><g style="" transform="translate(-97.109375, 46.625)" class="label attribute-type"><g><rect style="stroke: none" class="background"></rect></g><text style="" y="-10.1"><tspan dy="1.1em" y="-0.1em" x="0" class="text-outer-tspan"><tspan font-weight="normal" class="text-inner-tspan" font-style="normal">float</tspan></tspan></text></g><g style="" transform="translate(-31.734375, 46.625)" class="label attribute-name"><g><rect style="stroke: none" class="background"></rect></g><text style="" y="-10.1"><tspan dy="1.1em" y="-0.1em" x="0" class="text-outer-tspan"><tspan font-weight="normal" class="text-inner-tspan" font-style="normal">price</tspan></tspan></text></g><g style="" transform="translate(78.1875, 46.625)" class="label attribute-keys"><g><rect style="stroke: none" class="background"></rect></g><text style="" y="-10.1"><tspan dy="1.1em" y="-0.1em" x="0" class="text-outer-tspan"></tspan></text></g><g style="" transform="translate(122.109375, 46.625)" class="label attribute-comment"><g><rect style="stroke: none" class="background"></rect></g><text style="" y="-10.1"><tspan dy="1.1em" y="-0.1em" x="0" class="text-outer-tspan"></tspan></text></g><g class="divider"><path fill="none" stroke-width="1.3" stroke="#1a468b" d="M-109.609375 -38.25 C-64.01347275813313 -38.25, -18.417570516266267 -38.25, 109.609375 -38.25 M-109.609375 -38.25 C-64.05309705553282 -38.25, -18.49681911106562 -38.25, 109.609375 -38.25"></path></g><g class="divider"><path fill="none" stroke-width="1.3" stroke="#1a468b" d="M-44.234375 -38.25 C-44.234375 -8.98019425723853, -44.234375 20.28961148552294, -44.234375 76 M-44.234375 -38.25 C-44.234375 -2.374320082364271, -44.234375 33.50135983527146, -44.234375 76"></path></g><g class="divider"><path fill="none" stroke-width="1.3" stroke="#1a468b" d="M65.6875 -38.25 C65.6875 -4.179559658865465, 65.6875 29.89088068226907, 65.6875 76 M65.6875 -38.25 C65.6875 2.185988450114344, 65.6875 42.62197690022869, 65.6875 76"></path></g><g class="divider"><path fill="none" stroke-width="1.3" stroke="#1a468b" d="M-109.609375 -0.5 C-55.894445651413534 -0.5, -2.179516302827068 -0.5, 109.609375 -0.5 M-109.609375 -0.5 C-35.0671555947732 -0.5, 39.475063810453605 -0.5, 109.609375 -0.5"></path></g><g class="divider"><path fill="none" stroke-width="1.3" stroke="#1a468b" d="M-109.609375 37.25 C-24.033362360893477 37.25, 61.542650278213046 37.25, 109.609375 37.25 M-109.609375 37.25 C-22.66805011725559 37.25, 64.27327476548882 37.25, 109.609375 37.25"></path></g><g class="divider"><path fill="none" stroke-width="1.3" stroke="#1a468b" d="M-109.609375 -38.25 C-57.701483657212336 -38.25, -5.7935923144246715 -38.25, 109.609375 -38.25 M-109.609375 -38.25 C-44.19745815818089 -38.25, 21.214458683638213 -38.25, 109.609375 -38.25"></path></g></g><g transform="translate(164.076171875, 1018.875)" id="entity-PRODUCT-3" class="node default"><g style=""><path fill="#ffffff" stroke-width="0" stroke="none" d="M-107.26171875 -94.875 L107.26171875 -94.875 L107.26171875 94.875 L-107.26171875 94.875"></path><path fill="none" stroke-width="1.3" stroke="#1a468b" d="M-107.26171875 -94.875 C-30.477420803313905 -94.875, 46.30687714337219 -94.875, 107.26171875 -94.875 M-107.26171875 -94.875 C-61.54407980080585 -94.875, -15.826440851611693 -94.875, 107.26171875 -94.875 M107.26171875 -94.875 C107.26171875 -41.315072984565035, 107.26171875 12.24485403086993, 107.26171875 94.875 M107.26171875 -94.875 C107.26171875 -40.042958685324685, 107.26171875 14.78908262935063, 107.26171875 94.875 M107.26171875 94.875 C49.113525932492074 94.875, -9.034666885015852 94.875, -107.26171875 94.875 M107.26171875 94.875 C35.9061873121306 94.875, -35.449344125738804 94.875, -107.26171875 94.875 M-107.26171875 94.875 C-107.26171875 20.546687460444048, -107.26171875 -53.781625079111905, -107.26171875 -94.875 M-107.26171875 94.875 C-107.26171875 46.222099445053, -107.26171875 -2.4308011098940057, -107.26171875 -94.875"></path></g><g class="row-rect-odd" style=""><path fill="#ffffff" stroke-width="0" stroke="none" d="M-107.26171875 18.375 L107.26171875 18.375 L107.26171875 56.125 L-107.26171875 56.125"></path><path fill="none" stroke-width="1.3" stroke="#1a468b" d="M-107.26171875 18.375 C-45.01149777369871 18.375, 17.238723202602586 18.375, 107.26171875 18.375 M-107.26171875 18.375 C-31.808832572955552 18.375, 43.644053604088896 18.375, 107.26171875 18.375 M107.26171875 18.375 C107.26171875 29.097607197163978, 107.26171875 39.820214394327955, 107.26171875 56.125 M107.26171875 18.375 C107.26171875 27.47637225780609, 107.26171875 36.57774451561218, 107.26171875 56.125 M107.26171875 56.125 C53.285002763785805 56.125, -0.6917132224283904 56.125, -107.26171875 56.125 M107.26171875 56.125 C29.336655571761938 56.125, -48.588407606476125 56.125, -107.26171875 56.125 M-107.26171875 56.125 C-107.26171875 44.73763327439794, -107.26171875 33.35026654879589, -107.26171875 18.375 M-107.26171875 56.125 C-107.26171875 45.487835525657935, -107.26171875 34.85067105131587, -107.26171875 18.375"></path></g><g class="row-rect-even" style=""><path fill="#ffffff" stroke-width="0" stroke="none" d="M-107.26171875 56.125 L107.26171875 56.125 L107.26171875 93.875 L-107.26171875 93.875"></path><path fill="none" stroke-width="1.3" stroke="#1a468b" d="M-107.26171875 56.125 C-43.61043137008736 56.125, 20.040856009825276 56.125, 107.26171875 56.125 M-107.26171875 56.125 C-44.53327955395538 56.125, 18.195159642089237 56.125, 107.26171875 56.125 M107.26171875 56.125 C107.26171875 66.83222903884554, 107.26171875 77.53945807769108, 107.26171875 93.875 M107.26171875 56.125 C107.26171875 69.00541048352581, 107.26171875 81.88582096705163, 107.26171875 93.875 M107.26171875 93.875 C63.44828189797926 93.875, 19.634845045958514 93.875, -107.26171875 93.875 M107.26171875 93.875 C33.973298983185586 93.875, -39.31512078362883 93.875, -107.26171875 93.875 M-107.26171875 93.875 C-107.26171875 84.44260839432194, -107.26171875 75.01021678864387, -107.26171875 56.125 M-107.26171875 93.875 C-107.26171875 79.1302936034314, -107.26171875 64.3855872068628, -107.26171875 56.125"></path></g><g class="row-rect-odd" style=""><path fill="#ffffff" stroke-width="0" stroke="none" d="M-107.26171875 -57.125 L107.26171875 -57.125 L107.26171875 -19.375 L-107.26171875 -19.375"></path><path fill="none" stroke-width="1.3" stroke="#1a468b" d="M-107.26171875 -57.125 C-54.894983341380986 -57.125, -2.528247932761971 -57.125, 107.26171875 -57.125 M-107.26171875 -57.125 C-45.61752827035557 -57.125, 16.026662209288858 -57.125, 107.26171875 -57.125 M107.26171875 -57.125 C107.26171875 -43.545251941271275, 107.26171875 -29.965503882542542, 107.26171875 -19.375 M107.26171875 -57.125 C107.26171875 -46.60949300402857, 107.26171875 -36.09398600805714, 107.26171875 -19.375 M107.26171875 -19.375 C55.72593956674498 -19.375, 4.190160383489953 -19.375, -107.26171875 -19.375 M107.26171875 -19.375 C47.53957911014011 -19.375, -12.18256052971978 -19.375, -107.26171875 -19.375 M-107.26171875 -19.375 C-107.26171875 -32.44132182527672, -107.26171875 -45.50764365055343, -107.26171875 -57.125 M-107.26171875 -19.375 C-107.26171875 -29.48891197972884, -107.26171875 -39.60282395945768, -107.26171875 -57.125"></path></g><g style="" transform="translate(-34.38671875, -85.5)" class="label name"><g><rect style="stroke: none" class="background"></rect></g><text style="" y="-10.1"><tspan dy="1.1em" y="-0.1em" x="0" class="text-outer-tspan"><tspan font-weight="normal" class="text-inner-tspan" font-style="normal">PRODUCT</tspan></tspan></text></g><g style="" transform="translate(-94.76171875, -47.75)" class="label attribute-type"><g><rect style="stroke: none" class="background"></rect></g><text style="" y="-10.1"><tspan dy="1.1em" y="-0.1em" x="0" class="text-outer-tspan"><tspan font-weight="normal" class="text-inner-tspan" font-style="normal">string</tspan></tspan></text></g><g style="" transform="translate(-29.38671875, -47.75)" class="label attribute-name"><g><rect style="stroke: none" class="background"></rect></g><text style="" y="-10.1"><tspan dy="1.1em" y="-0.1em" x="0" class="text-outer-tspan"><tspan font-weight="normal" class="text-inner-tspan" font-style="normal">productId</tspan></tspan></text></g><g style="" transform="translate(75.83984375, -47.75)" class="label attribute-keys"><g><rect style="stroke: none" class="background"></rect></g><text style="" y="-10.1"><tspan dy="1.1em" y="-0.1em" x="0" class="text-outer-tspan"><tspan font-weight="normal" class="text-inner-tspan" font-style="normal">PK</tspan></tspan></text></g><g style="" transform="translate(119.76171875, -47.75)" class="label attribute-comment"><g><rect style="stroke: none" class="background"></rect></g><text style="" y="-10.1"><tspan dy="1.1em" y="-0.1em" x="0" class="text-outer-tspan"></tspan></text></g><g style="" transform="translate(-94.76171875, -10)" class="label attribute-type"><g><rect style="stroke: none" class="background"></rect></g><text style="" y="-10.1"><tspan dy="1.1em" y="-0.1em" x="0" class="text-outer-tspan"><tspan font-weight="normal" class="text-inner-tspan" font-style="normal">string</tspan></tspan></text></g><g style="" transform="translate(-29.38671875, -10)" class="label attribute-name"><g><rect style="stroke: none" class="background"></rect></g><text style="" y="-10.1"><tspan dy="1.1em" y="-0.1em" x="0" class="text-outer-tspan"><tspan font-weight="normal" class="text-inner-tspan" font-style="normal">name</tspan></tspan></text></g><g style="" transform="translate(75.83984375, -10)" class="label attribute-keys"><g><rect style="stroke: none" class="background"></rect></g><text style="" y="-10.1"><tspan dy="1.1em" y="-0.1em" x="0" class="text-outer-tspan"></tspan></text></g><g style="" transform="translate(119.76171875, -10)" class="label attribute-comment"><g><rect style="stroke: none" class="background"></rect></g><text style="" y="-10.1"><tspan dy="1.1em" y="-0.1em" x="0" class="text-outer-tspan"></tspan></text></g><g style="" transform="translate(-94.76171875, 27.75)" class="label attribute-type"><g><rect style="stroke: none" class="background"></rect></g><text style="" y="-10.1"><tspan dy="1.1em" y="-0.1em" x="0" class="text-outer-tspan"><tspan font-weight="normal" class="text-inner-tspan" font-style="normal">float</tspan></tspan></text></g><g style="" transform="translate(-29.38671875, 27.75)" class="label attribute-name"><g><rect style="stroke: none" class="background"></rect></g><text style="" y="-10.1"><tspan dy="1.1em" y="-0.1em" x="0" class="text-outer-tspan"><tspan font-weight="normal" class="text-inner-tspan" font-style="normal">price</tspan></tspan></text></g><g style="" transform="translate(75.83984375, 27.75)" class="label attribute-keys"><g><rect style="stroke: none" class="background"></rect></g><text style="" y="-10.1"><tspan dy="1.1em" y="-0.1em" x="0" class="text-outer-tspan"></tspan></text></g><g style="" transform="translate(119.76171875, 27.75)" class="label attribute-comment"><g><rect style="stroke: none" class="background"></rect></g><text style="" y="-10.1"><tspan dy="1.1em" y="-0.1em" x="0" class="text-outer-tspan"></tspan></text></g><g style="" transform="translate(-94.76171875, 65.5)" class="label attribute-type"><g><rect style="stroke: none" class="background"></rect></g><text style="" y="-10.1"><tspan dy="1.1em" y="-0.1em" x="0" class="text-outer-tspan"><tspan font-weight="normal" class="text-inner-tspan" font-style="normal">string</tspan></tspan></text></g><g style="" transform="translate(-29.38671875, 65.5)" class="label attribute-name"><g><rect style="stroke: none" class="background"></rect></g><text style="" y="-10.1"><tspan dy="1.1em" y="-0.1em" x="0" class="text-outer-tspan"><tspan font-weight="normal" class="text-inner-tspan" font-style="normal">description</tspan></tspan></text></g><g style="" transform="translate(75.83984375, 65.5)" class="label attribute-keys"><g><rect style="stroke: none" class="background"></rect></g><text style="" y="-10.1"><tspan dy="1.1em" y="-0.1em" x="0" class="text-outer-tspan"></tspan></text></g><g style="" transform="translate(119.76171875, 65.5)" class="label attribute-comment"><g><rect style="stroke: none" class="background"></rect></g><text style="" y="-10.1"><tspan dy="1.1em" y="-0.1em" x="0" class="text-outer-tspan"></tspan></text></g><g class="divider"><path fill="none" stroke-width="1.3" stroke="#1a468b" d="M-107.26171875 -57.125 C-38.93186804961974 -57.125, 29.397982650760525 -57.125, 107.26171875 -57.125 M-107.26171875 -57.125 C-31.632305984345635 -57.125, 43.99710678130873 -57.125, 107.26171875 -57.125"></path></g><g class="divider"><path fill="none" stroke-width="1.3" stroke="#1a468b" d="M-41.88671875 -57.125 C-41.88671875 2.824250194610066, -41.88671875 62.77350038922013, -41.88671875 94.875 M-41.88671875 -57.125 C-41.88671875 -22.29362817870919, -41.88671875 12.537743642581617, -41.88671875 94.875"></path></g><g class="divider"><path fill="none" stroke-width="1.3" stroke="#1a468b" d="M63.33984375 -57.125 C63.33984375 -24.42176675172614, 63.33984375 8.281466496547722, 63.33984375 94.875 M63.33984375 -57.125 C63.33984375 -22.139574848348957, 63.33984375 12.845850303302086, 63.33984375 94.875"></path></g><g class="divider"><path fill="none" stroke-width="1.3" stroke="#1a468b" d="M-107.26171875 -19.375 C-46.10458027364026 -19.375, 15.052558202719482 -19.375, 107.26171875 -19.375 M-107.26171875 -19.375 C-59.83702784114106 -19.375, -12.412336932282116 -19.375, 107.26171875 -19.375"></path></g><g class="divider"><path fill="none" stroke-width="1.3" stroke="#1a468b" d="M-107.26171875 18.375 C-63.03498161106876 18.375, -18.808244472137517 18.375, 107.26171875 18.375 M-107.26171875 18.375 C-49.41196112287485 18.375, 8.4377965042503 18.375, 107.26171875 18.375"></path></g><g class="divider"><path fill="none" stroke-width="1.3" stroke="#1a468b" d="M-107.26171875 56.125 C-37.79887855783464 56.125, 31.663961634330718 56.125, 107.26171875 56.125 M-107.26171875 56.125 C-28.962665761696584 56.125, 49.33638722660683 56.125, 107.26171875 56.125"></path></g><g class="divider"><path fill="none" stroke-width="1.3" stroke="#1a468b" d="M-107.26171875 -57.125 C-44.85171663605704 -57.125, 17.558285477885917 -57.125, 107.26171875 -57.125 M-107.26171875 -57.125 C-51.68297320940246 -57.125, 3.895772331195076 -57.125, 107.26171875 -57.125"></path></g></g><g transform="translate(122.73046875, 726.125)" id="entity-SUPPLIER-4" class="node default"><g style=""><path fill="#ffffff" stroke-width="0" stroke="none" d="M-114.73046875 -94.875 L114.73046875 -94.875 L114.73046875 94.875 L-114.73046875 94.875"></path><path fill="none" stroke-width="1.3" stroke="#1a468b" d="M-114.73046875 -94.875 C-31.310062812751 -94.875, 52.110343124498 -94.875, 114.73046875 -94.875 M-114.73046875 -94.875 C-52.94195588975072 -94.875, 8.846556970498554 -94.875, 114.73046875 -94.875 M114.73046875 -94.875 C114.73046875 -28.930725905730156, 114.73046875 37.01354818853969, 114.73046875 94.875 M114.73046875 -94.875 C114.73046875 -30.54716814591667, 114.73046875 33.78066370816666, 114.73046875 94.875 M114.73046875 94.875 C66.73933217093165 94.875, 18.74819559186328 94.875, -114.73046875 94.875 M114.73046875 94.875 C44.85374539711751 94.875, -25.022977955764986 94.875, -114.73046875 94.875 M-114.73046875 94.875 C-114.73046875 30.549241889320655, -114.73046875 -33.77651622135869, -114.73046875 -94.875 M-114.73046875 94.875 C-114.73046875 53.41746307068261, -114.73046875 11.959926141365216, -114.73046875 -94.875"></path></g><g class="row-rect-odd" style=""><path fill="#ffffff" stroke-width="0" stroke="none" d="M-114.73046875 18.375 L114.73046875 18.375 L114.73046875 56.125 L-114.73046875 56.125"></path><path fill="none" stroke-width="1.3" stroke="#1a468b" d="M-114.73046875 18.375 C-54.8701236107211 18.375, 4.990221528557797 18.375, 114.73046875 18.375 M-114.73046875 18.375 C-23.344473408088902 18.375, 68.0415219338222 18.375, 114.73046875 18.375 M114.73046875 18.375 C114.73046875 30.046499910159127, 114.73046875 41.717999820318255, 114.73046875 56.125 M114.73046875 18.375 C114.73046875 26.907313532964906, 114.73046875 35.43962706592981, 114.73046875 56.125 M114.73046875 56.125 C27.759224708781773 56.125, -59.212019332436455 56.125, -114.73046875 56.125 M114.73046875 56.125 C34.79300671671466 56.125, -45.144455316570685 56.125, -114.73046875 56.125 M-114.73046875 56.125 C-114.73046875 48.34707206565085, -114.73046875 40.56914413130169, -114.73046875 18.375 M-114.73046875 56.125 C-114.73046875 41.260216982989235, -114.73046875 26.39543396597847, -114.73046875 18.375"></path></g><g class="row-rect-even" style=""><path fill="#ffffff" stroke-width="0" stroke="none" d="M-114.73046875 56.125 L114.73046875 56.125 L114.73046875 93.875 L-114.73046875 93.875"></path><path fill="none" stroke-width="1.3" stroke="#1a468b" d="M-114.73046875 56.125 C-34.63275685547248 56.125, 45.46495503905504 56.125, 114.73046875 56.125 M-114.73046875 56.125 C-64.92869729245825 56.125, -15.126925834916491 56.125, 114.73046875 56.125 M114.73046875 56.125 C114.73046875 65.82319692835226, 114.73046875 75.52139385670453, 114.73046875 93.875 M114.73046875 56.125 C114.73046875 69.04958217070369, 114.73046875 81.97416434140737, 114.73046875 93.875 M114.73046875 93.875 C54.79749921065451 93.875, -5.135470328690985 93.875, -114.73046875 93.875 M114.73046875 93.875 C38.09108874302483 93.875, -38.54829126395035 93.875, -114.73046875 93.875 M-114.73046875 93.875 C-114.73046875 85.32964629073031, -114.73046875 76.7842925814606, -114.73046875 56.125 M-114.73046875 93.875 C-114.73046875 83.55729116609629, -114.73046875 73.23958233219257, -114.73046875 56.125"></path></g><g class="row-rect-odd" style=""><path fill="#ffffff" stroke-width="0" stroke="none" d="M-114.73046875 -57.125 L114.73046875 -57.125 L114.73046875 -19.375 L-114.73046875 -19.375"></path><path fill="none" stroke-width="1.3" stroke="#1a468b" d="M-114.73046875 -57.125 C-38.334934369925094 -57.125, 38.06060001014981 -57.125, 114.73046875 -57.125 M-114.73046875 -57.125 C-28.029390581970247 -57.125, 58.671687586059505 -57.125, 114.73046875 -57.125 M114.73046875 -57.125 C114.73046875 -45.826741975430096, 114.73046875 -34.528483950860185, 114.73046875 -19.375 M114.73046875 -57.125 C114.73046875 -44.702167690966974, 114.73046875 -32.27933538193394, 114.73046875 -19.375 M114.73046875 -19.375 C55.64227137514983 -19.375, -3.4459259997003358 -19.375, -114.73046875 -19.375 M114.73046875 -19.375 C66.48586967823447 -19.375, 18.24127060646893 -19.375, -114.73046875 -19.375 M-114.73046875 -19.375 C-114.73046875 -29.48648754522069, -114.73046875 -39.59797509044138, -114.73046875 -57.125 M-114.73046875 -19.375 C-114.73046875 -29.10870997782068, -114.73046875 -38.84241995564136, -114.73046875 -57.125"></path></g><g style="" transform="translate(-33.51953125, -85.5)" class="label name"><g><rect style="stroke: none" class="background"></rect></g><text style="" y="-10.1"><tspan dy="1.1em" y="-0.1em" x="0" class="text-outer-tspan"><tspan font-weight="normal" class="text-inner-tspan" font-style="normal">SUPPLIER</tspan></tspan></text></g><g style="" transform="translate(-102.23046875, -47.75)" class="label attribute-type"><g><rect style="stroke: none" class="background"></rect></g><text style="" y="-10.1"><tspan dy="1.1em" y="-0.1em" x="0" class="text-outer-tspan"><tspan font-weight="normal" class="text-inner-tspan" font-style="normal">string</tspan></tspan></text></g><g style="" transform="translate(-36.85546875, -47.75)" class="label attribute-name"><g><rect style="stroke: none" class="background"></rect></g><text style="" y="-10.1"><tspan dy="1.1em" y="-0.1em" x="0" class="text-outer-tspan"><tspan font-weight="normal" class="text-inner-tspan" font-style="normal">supplierId</tspan></tspan></text></g><g style="" transform="translate(83.30859375, -47.75)" class="label attribute-keys"><g><rect style="stroke: none" class="background"></rect></g><text style="" y="-10.1"><tspan dy="1.1em" y="-0.1em" x="0" class="text-outer-tspan"><tspan font-weight="normal" class="text-inner-tspan" font-style="normal">PK</tspan></tspan></text></g><g style="" transform="translate(127.23046875, -47.75)" class="label attribute-comment"><g><rect style="stroke: none" class="background"></rect></g><text style="" y="-10.1"><tspan dy="1.1em" y="-0.1em" x="0" class="text-outer-tspan"></tspan></text></g><g style="" transform="translate(-102.23046875, -10)" class="label attribute-type"><g><rect style="stroke: none" class="background"></rect></g><text style="" y="-10.1"><tspan dy="1.1em" y="-0.1em" x="0" class="text-outer-tspan"><tspan font-weight="normal" class="text-inner-tspan" font-style="normal">string</tspan></tspan></text></g><g style="" transform="translate(-36.85546875, -10)" class="label attribute-name"><g><rect style="stroke: none" class="background"></rect></g><text style="" y="-10.1"><tspan dy="1.1em" y="-0.1em" x="0" class="text-outer-tspan"><tspan font-weight="normal" class="text-inner-tspan" font-style="normal">name</tspan></tspan></text></g><g style="" transform="translate(83.30859375, -10)" class="label attribute-keys"><g><rect style="stroke: none" class="background"></rect></g><text style="" y="-10.1"><tspan dy="1.1em" y="-0.1em" x="0" class="text-outer-tspan"></tspan></text></g><g style="" transform="translate(127.23046875, -10)" class="label attribute-comment"><g><rect style="stroke: none" class="background"></rect></g><text style="" y="-10.1"><tspan dy="1.1em" y="-0.1em" x="0" class="text-outer-tspan"></tspan></text></g><g style="" transform="translate(-102.23046875, 27.75)" class="label attribute-type"><g><rect style="stroke: none" class="background"></rect></g><text style="" y="-10.1"><tspan dy="1.1em" y="-0.1em" x="0" class="text-outer-tspan"><tspan font-weight="normal" class="text-inner-tspan" font-style="normal">string</tspan></tspan></text></g><g style="" transform="translate(-36.85546875, 27.75)" class="label attribute-name"><g><rect style="stroke: none" class="background"></rect></g><text style="" y="-10.1"><tspan dy="1.1em" y="-0.1em" x="0" class="text-outer-tspan"><tspan font-weight="normal" class="text-inner-tspan" font-style="normal">contactName</tspan></tspan></text></g><g style="" transform="translate(83.30859375, 27.75)" class="label attribute-keys"><g><rect style="stroke: none" class="background"></rect></g><text style="" y="-10.1"><tspan dy="1.1em" y="-0.1em" x="0" class="text-outer-tspan"></tspan></text></g><g style="" transform="translate(127.23046875, 27.75)" class="label attribute-comment"><g><rect style="stroke: none" class="background"></rect></g><text style="" y="-10.1"><tspan dy="1.1em" y="-0.1em" x="0" class="text-outer-tspan"></tspan></text></g><g style="" transform="translate(-102.23046875, 65.5)" class="label attribute-type"><g><rect style="stroke: none" class="background"></rect></g><text style="" y="-10.1"><tspan dy="1.1em" y="-0.1em" x="0" class="text-outer-tspan"><tspan font-weight="normal" class="text-inner-tspan" font-style="normal">string</tspan></tspan></text></g><g style="" transform="translate(-36.85546875, 65.5)" class="label attribute-name"><g><rect style="stroke: none" class="background"></rect></g><text style="" y="-10.1"><tspan dy="1.1em" y="-0.1em" x="0" class="text-outer-tspan"><tspan font-weight="normal" class="text-inner-tspan" font-style="normal">phone</tspan></tspan></text></g><g style="" transform="translate(83.30859375, 65.5)" class="label attribute-keys"><g><rect style="stroke: none" class="background"></rect></g><text style="" y="-10.1"><tspan dy="1.1em" y="-0.1em" x="0" class="text-outer-tspan"></tspan></text></g><g style="" transform="translate(127.23046875, 65.5)" class="label attribute-comment"><g><rect style="stroke: none" class="background"></rect></g><text style="" y="-10.1"><tspan dy="1.1em" y="-0.1em" x="0" class="text-outer-tspan"></tspan></text></g><g class="divider"><path fill="none" stroke-width="1.3" stroke="#1a468b" d="M-114.73046875 -57.125 C-64.00094158014063 -57.125, -13.271414410281267 -57.125, 114.73046875 -57.125 M-114.73046875 -57.125 C-29.999244317442333 -57.125, 54.731980115115334 -57.125, 114.73046875 -57.125"></path></g><g class="divider"><path fill="none" stroke-width="1.3" stroke="#1a468b" d="M-49.35546875 -57.125 C-49.35546875 -19.27885048319275, -49.35546875 18.567299033614503, -49.35546875 94.875 M-49.35546875 -57.125 C-49.35546875 -2.841837971724466, -49.35546875 51.44132405655107, -49.35546875 94.875"></path></g><g class="divider"><path fill="none" stroke-width="1.3" stroke="#1a468b" d="M70.80859375 -57.125 C70.80859375 -7.512908076210515, 70.80859375 42.09918384757897, 70.80859375 94.875 M70.80859375 -57.125 C70.80859375 -25.911398261310524, 70.80859375 5.302203477378953, 70.80859375 94.875"></path></g><g class="divider"><path fill="none" stroke-width="1.3" stroke="#1a468b" d="M-114.73046875 -19.375 C-30.38324465086069 -19.375, 53.96397944827862 -19.375, 114.73046875 -19.375 M-114.73046875 -19.375 C-51.54797117226273 -19.375, 11.634526405474546 -19.375, 114.73046875 -19.375"></path></g><g class="divider"><path fill="none" stroke-width="1.3" stroke="#1a468b" d="M-114.73046875 18.375 C-38.9965863130918 18.375, 36.73729612381641 18.375, 114.73046875 18.375 M-114.73046875 18.375 C-48.45319031992085 18.375, 17.8240881101583 18.375, 114.73046875 18.375"></path></g><g class="divider"><path fill="none" stroke-width="1.3" stroke="#1a468b" d="M-114.73046875 56.125 C-51.838727889193386 56.125, 11.053012971613228 56.125, 114.73046875 56.125 M-114.73046875 56.125 C-54.58155425961916 56.125, 5.567360230761679 56.125, 114.73046875 56.125"></path></g><g class="divider"><path fill="none" stroke-width="1.3" stroke="#1a468b" d="M-114.73046875 -57.125 C-53.36775490621305 -57.125, 7.994958937573898 -57.125, 114.73046875 -57.125 M-114.73046875 -57.125 C-58.998153046426026 -57.125, -3.265837342852052 -57.125, 114.73046875 -57.125"></path></g></g><g transform="translate(1093.705078125, 433.375)" id="entity-PAYMENT-5" class="node default"><g style=""><path fill="#ffffff" stroke-width="0" stroke="none" d="M-124.67578125 -94.875 L124.67578125 -94.875 L124.67578125 94.875 L-124.67578125 94.875"></path><path fill="none" stroke-width="1.3" stroke="#1a468b" d="M-124.67578125 -94.875 C-43.72507402380893 -94.875, 37.22563320238214 -94.875, 124.67578125 -94.875 M-124.67578125 -94.875 C-27.047578717289554 -94.875, 70.58062381542089 -94.875, 124.67578125 -94.875 M124.67578125 -94.875 C124.67578125 -24.703682568273337, 124.67578125 45.46763486345333, 124.67578125 94.875 M124.67578125 -94.875 C124.67578125 -51.97447148846736, 124.67578125 -9.073942976934717, 124.67578125 94.875 M124.67578125 94.875 C51.401094978485645 94.875, -21.87359129302871 94.875, -124.67578125 94.875 M124.67578125 94.875 C45.377917797663756 94.875, -33.91994565467249 94.875, -124.67578125 94.875 M-124.67578125 94.875 C-124.67578125 56.55661677478855, -124.67578125 18.238233549577103, -124.67578125 -94.875 M-124.67578125 94.875 C-124.67578125 34.965287325932586, -124.67578125 -24.94442534813483, -124.67578125 -94.875"></path></g><g class="row-rect-odd" style=""><path fill="#ffffff" stroke-width="0" stroke="none" d="M-124.67578125 18.375 L124.67578125 18.375 L124.67578125 56.125 L-124.67578125 56.125"></path><path fill="none" stroke-width="1.3" stroke="#1a468b" d="M-124.67578125 18.375 C-33.05884867213322 18.375, 58.558083905733554 18.375, 124.67578125 18.375 M-124.67578125 18.375 C-36.45124460890308 18.375, 51.77329203219384 18.375, 124.67578125 18.375 M124.67578125 18.375 C124.67578125 26.75145801202524, 124.67578125 35.12791602405048, 124.67578125 56.125 M124.67578125 18.375 C124.67578125 26.751745061723696, 124.67578125 35.12849012344739, 124.67578125 56.125 M124.67578125 56.125 C74.48305684658712 56.125, 24.290332443174222 56.125, -124.67578125 56.125 M124.67578125 56.125 C56.21797570870359 56.125, -12.239829832592818 56.125, -124.67578125 56.125 M-124.67578125 56.125 C-124.67578125 43.41429190144224, -124.67578125 30.703583802884477, -124.67578125 18.375 M-124.67578125 56.125 C-124.67578125 45.323880607013365, -124.67578125 34.52276121402672, -124.67578125 18.375"></path></g><g class="row-rect-even" style=""><path fill="#ffffff" stroke-width="0" stroke="none" d="M-124.67578125 56.125 L124.67578125 56.125 L124.67578125 93.875 L-124.67578125 93.875"></path><path fill="none" stroke-width="1.3" stroke="#1a468b" d="M-124.67578125 56.125 C-55.65669585374461 56.125, 13.362389542510783 56.125, 124.67578125 56.125 M-124.67578125 56.125 C-57.5603711393006 56.125, 9.555038971398801 56.125, 124.67578125 56.125 M124.67578125 56.125 C124.67578125 70.21437641800681, 124.67578125 84.30375283601362, 124.67578125 93.875 M124.67578125 56.125 C124.67578125 66.88729882197401, 124.67578125 77.64959764394803, 124.67578125 93.875 M124.67578125 93.875 C60.04810605108325 93.875, -4.579569147833496 93.875, -124.67578125 93.875 M124.67578125 93.875 C66.38528545393703 93.875, 8.094789657874074 93.875, -124.67578125 93.875 M-124.67578125 93.875 C-124.67578125 85.65794721181797, -124.67578125 77.44089442363592, -124.67578125 56.125 M-124.67578125 93.875 C-124.67578125 86.30061950103095, -124.67578125 78.7262390020619, -124.67578125 56.125"></path></g><g class="row-rect-odd" style=""><path fill="#ffffff" stroke-width="0" stroke="none" d="M-124.67578125 -57.125 L124.67578125 -57.125 L124.67578125 -19.375 L-124.67578125 -19.375"></path><path fill="none" stroke-width="1.3" stroke="#1a468b" d="M-124.67578125 -57.125 C-54.40879078735114 -57.125, 15.858199675297726 -57.125, 124.67578125 -57.125 M-124.67578125 -57.125 C-31.308776578147445 -57.125, 62.05822809370511 -57.125, 124.67578125 -57.125 M124.67578125 -57.125 C124.67578125 -47.173996777763264, 124.67578125 -37.22299355552653, 124.67578125 -19.375 M124.67578125 -57.125 C124.67578125 -47.16758433375176, 124.67578125 -37.210168667503524, 124.67578125 -19.375 M124.67578125 -19.375 C69.26568519929789 -19.375, 13.855589148595783 -19.375, -124.67578125 -19.375 M124.67578125 -19.375 C45.635865290611974 -19.375, -33.40405066877605 -19.375, -124.67578125 -19.375 M-124.67578125 -19.375 C-124.67578125 -32.68708742120413, -124.67578125 -45.999174842408266, -124.67578125 -57.125 M-124.67578125 -19.375 C-124.67578125 -30.982697610348396, -124.67578125 -42.59039522069679, -124.67578125 -57.125"></path></g><g style="" transform="translate(-32.06640625, -85.5)" class="label name"><g><rect style="stroke: none" class="background"></rect></g><text style="" y="-10.1"><tspan dy="1.1em" y="-0.1em" x="0" class="text-outer-tspan"><tspan font-weight="normal" class="text-inner-tspan" font-style="normal">PAYMENT</tspan></tspan></text></g><g style="" transform="translate(-112.17578125, -47.75)" class="label attribute-type"><g><rect style="stroke: none" class="background"></rect></g><text style="" y="-10.1"><tspan dy="1.1em" y="-0.1em" x="0" class="text-outer-tspan"><tspan font-weight="normal" class="text-inner-tspan" font-style="normal">string</tspan></tspan></text></g><g style="" transform="translate(-46.80078125, -47.75)" class="label attribute-name"><g><rect style="stroke: none" class="background"></rect></g><text style="" y="-10.1"><tspan dy="1.1em" y="-0.1em" x="0" class="text-outer-tspan"><tspan font-weight="normal" class="text-inner-tspan" font-style="normal">paymentId</tspan></tspan></text></g><g style="" transform="translate(93.25390625, -47.75)" class="label attribute-keys"><g><rect style="stroke: none" class="background"></rect></g><text style="" y="-10.1"><tspan dy="1.1em" y="-0.1em" x="0" class="text-outer-tspan"><tspan font-weight="normal" class="text-inner-tspan" font-style="normal">PK</tspan></tspan></text></g><g style="" transform="translate(137.17578125, -47.75)" class="label attribute-comment"><g><rect style="stroke: none" class="background"></rect></g><text style="" y="-10.1"><tspan dy="1.1em" y="-0.1em" x="0" class="text-outer-tspan"></tspan></text></g><g style="" transform="translate(-112.17578125, -10)" class="label attribute-type"><g><rect style="stroke: none" class="background"></rect></g><text style="" y="-10.1"><tspan dy="1.1em" y="-0.1em" x="0" class="text-outer-tspan"><tspan font-weight="normal" class="text-inner-tspan" font-style="normal">float</tspan></tspan></text></g><g style="" transform="translate(-46.80078125, -10)" class="label attribute-name"><g><rect style="stroke: none" class="background"></rect></g><text style="" y="-10.1"><tspan dy="1.1em" y="-0.1em" x="0" class="text-outer-tspan"><tspan font-weight="normal" class="text-inner-tspan" font-style="normal">amount</tspan></tspan></text></g><g style="" transform="translate(93.25390625, -10)" class="label attribute-keys"><g><rect style="stroke: none" class="background"></rect></g><text style="" y="-10.1"><tspan dy="1.1em" y="-0.1em" x="0" class="text-outer-tspan"></tspan></text></g><g style="" transform="translate(137.17578125, -10)" class="label attribute-comment"><g><rect style="stroke: none" class="background"></rect></g><text style="" y="-10.1"><tspan dy="1.1em" y="-0.1em" x="0" class="text-outer-tspan"></tspan></text></g><g style="" transform="translate(-112.17578125, 27.75)" class="label attribute-type"><g><rect style="stroke: none" class="background"></rect></g><text style="" y="-10.1"><tspan dy="1.1em" y="-0.1em" x="0" class="text-outer-tspan"><tspan font-weight="normal" class="text-inner-tspan" font-style="normal">date</tspan></tspan></text></g><g style="" transform="translate(-46.80078125, 27.75)" class="label attribute-name"><g><rect style="stroke: none" class="background"></rect></g><text style="" y="-10.1"><tspan dy="1.1em" y="-0.1em" x="0" class="text-outer-tspan"><tspan font-weight="normal" class="text-inner-tspan" font-style="normal">paymentDate</tspan></tspan></text></g><g style="" transform="translate(93.25390625, 27.75)" class="label attribute-keys"><g><rect style="stroke: none" class="background"></rect></g><text style="" y="-10.1"><tspan dy="1.1em" y="-0.1em" x="0" class="text-outer-tspan"></tspan></text></g><g style="" transform="translate(137.17578125, 27.75)" class="label attribute-comment"><g><rect style="stroke: none" class="background"></rect></g><text style="" y="-10.1"><tspan dy="1.1em" y="-0.1em" x="0" class="text-outer-tspan"></tspan></text></g><g style="" transform="translate(-112.17578125, 65.5)" class="label attribute-type"><g><rect style="stroke: none" class="background"></rect></g><text style="" y="-10.1"><tspan dy="1.1em" y="-0.1em" x="0" class="text-outer-tspan"><tspan font-weight="normal" class="text-inner-tspan" font-style="normal">string</tspan></tspan></text></g><g style="" transform="translate(-46.80078125, 65.5)" class="label attribute-name"><g><rect style="stroke: none" class="background"></rect></g><text style="" y="-10.1"><tspan dy="1.1em" y="-0.1em" x="0" class="text-outer-tspan"><tspan font-weight="normal" class="text-inner-tspan" font-style="normal">paymentMethod</tspan></tspan></text></g><g style="" transform="translate(93.25390625, 65.5)" class="label attribute-keys"><g><rect style="stroke: none" class="background"></rect></g><text style="" y="-10.1"><tspan dy="1.1em" y="-0.1em" x="0" class="text-outer-tspan"></tspan></text></g><g style="" transform="translate(137.17578125, 65.5)" class="label attribute-comment"><g><rect style="stroke: none" class="background"></rect></g><text style="" y="-10.1"><tspan dy="1.1em" y="-0.1em" x="0" class="text-outer-tspan"></tspan></text></g><g class="divider"><path fill="none" stroke-width="1.3" stroke="#1a468b" d="M-124.67578125 -57.125 C-62.76529558065246 -57.125, -0.8548099113049261 -57.125, 124.67578125 -57.125 M-124.67578125 -57.125 C-60.24567920089714 -57.125, 4.184422848205713 -57.125, 124.67578125 -57.125"></path></g><g class="divider"><path fill="none" stroke-width="1.3" stroke="#1a468b" d="M-59.30078125 -57.125 C-59.30078125 -14.79712056683831, -59.30078125 27.53075886632338, -59.30078125 94.875 M-59.30078125 -57.125 C-59.30078125 -26.32397557825833, -59.30078125 4.477048843483338, -59.30078125 94.875"></path></g><g class="divider"><path fill="none" stroke-width="1.3" stroke="#1a468b" d="M80.75390625 -57.125 C80.75390625 -15.941566123545854, 80.75390625 25.24186775290829, 80.75390625 94.875 M80.75390625 -57.125 C80.75390625 -26.51457226372095, 80.75390625 4.0958554725581, 80.75390625 94.875"></path></g><g class="divider"><path fill="none" stroke-width="1.3" stroke="#1a468b" d="M-124.67578125 -19.375 C-31.43816332067081 -19.375, 61.79945460865838 -19.375, 124.67578125 -19.375 M-124.67578125 -19.375 C-28.527988222073077 -19.375, 67.61980480585385 -19.375, 124.67578125 -19.375"></path></g><g class="divider"><path fill="none" stroke-width="1.3" stroke="#1a468b" d="M-124.67578125 18.375 C-57.3685998790647 18.375, 9.938581491870593 18.375, 124.67578125 18.375 M-124.67578125 18.375 C-41.14680514490871 18.375, 42.38217096018258 18.375, 124.67578125 18.375"></path></g><g class="divider"><path fill="none" stroke-width="1.3" stroke="#1a468b" d="M-124.67578125 56.125 C-68.5955055450224 56.125, -12.51522984004481 56.125, 124.67578125 56.125 M-124.67578125 56.125 C-52.59824745032225 56.125, 19.479286349355505 56.125, 124.67578125 56.125"></path></g><g class="divider"><path fill="none" stroke-width="1.3" stroke="#1a468b" d="M-124.67578125 -57.125 C-27.365465233273113 -57.125, 69.94485078345377 -57.125, 124.67578125 -57.125 M-124.67578125 -57.125 C-27.118993276449046 -57.125, 70.4377946971019 -57.125, 124.67578125 -57.125"></path></g></g><g transform="translate(912.939453125, 726.125)" id="entity-SHIPMENT-6" class="node default"><g style=""><path fill="#ffffff" stroke-width="0" stroke="none" d="M-124.734375 -76 L124.734375 -76 L124.734375 76 L-124.734375 76"></path><path fill="none" stroke-width="1.3" stroke="#1a468b" d="M-124.734375 -76 C-50.78431091794441 -76, 23.16575316411118 -76, 124.734375 -76 M-124.734375 -76 C-46.034001473985924 -76, 32.66637205202815 -76, 124.734375 -76 M124.734375 -76 C124.734375 -17.662209577038624, 124.734375 40.67558084592275, 124.734375 76 M124.734375 -76 C124.734375 -29.838334443989794, 124.734375 16.323331112020412, 124.734375 76 M124.734375 76 C27.7781735014713 76, -69.1780279970574 76, -124.734375 76 M124.734375 76 C33.51327165845049 76, -57.707831683099016 76, -124.734375 76 M-124.734375 76 C-124.734375 33.98100547449028, -124.734375 -8.037989051019437, -124.734375 -76 M-124.734375 76 C-124.734375 33.16944085755601, -124.734375 -9.661118284887976, -124.734375 -76"></path></g><g class="row-rect-odd" style=""><path fill="#ffffff" stroke-width="0" stroke="none" d="M-124.734375 37.25 L124.734375 37.25 L124.734375 75 L-124.734375 75"></path><path fill="none" stroke-width="1.3" stroke="#1a468b" d="M-124.734375 37.25 C-25.356784564016465 37.25, 74.02080587196707 37.25, 124.734375 37.25 M-124.734375 37.25 C-42.341955879726626 37.25, 40.05046324054675 37.25, 124.734375 37.25 M124.734375 37.25 C124.734375 48.94005447748763, 124.734375 60.630108954975256, 124.734375 75 M124.734375 37.25 C124.734375 47.1399401864723, 124.734375 57.02988037294461, 124.734375 75 M124.734375 75 C64.5414441206301 75, 4.348513241260221 75, -124.734375 75 M124.734375 75 C58.06286138614193 75, -8.608652227716135 75, -124.734375 75 M-124.734375 75 C-124.734375 65.78199621704916, -124.734375 56.56399243409832, -124.734375 37.25 M-124.734375 75 C-124.734375 60.103940131081664, -124.734375 45.20788026216333, -124.734375 37.25"></path></g><g class="row-rect-even" style=""><path fill="#ffffff" stroke-width="0" stroke="none" d="M-124.734375 -38.25 L124.734375 -38.25 L124.734375 -0.5 L-124.734375 -0.5"></path><path fill="none" stroke-width="1.3" stroke="#1a468b" d="M-124.734375 -38.25 C-54.88825109708249 -38.25, 14.957872805835024 -38.25, 124.734375 -38.25 M-124.734375 -38.25 C-55.53302694704554 -38.25, 13.668321105908916 -38.25, 124.734375 -38.25 M124.734375 -38.25 C124.734375 -28.26696074031472, 124.734375 -18.283921480629438, 124.734375 -0.5 M124.734375 -38.25 C124.734375 -29.223908752956834, 124.734375 -20.19781750591367, 124.734375 -0.5 M124.734375 -0.5 C63.40604940617614 -0.5, 2.077723812352275 -0.5, -124.734375 -0.5 M124.734375 -0.5 C74.41468015620656 -0.5, 24.094985312413115 -0.5, -124.734375 -0.5 M-124.734375 -0.5 C-124.734375 -15.101330007204018, -124.734375 -29.702660014408035, -124.734375 -38.25 M-124.734375 -0.5 C-124.734375 -9.583983408948043, -124.734375 -18.667966817896087, -124.734375 -38.25"></path></g><g style="" transform="translate(-35.8359375, -66.625)" class="label name"><g><rect style="stroke: none" class="background"></rect></g><text style="" y="-10.1"><tspan dy="1.1em" y="-0.1em" x="0" class="text-outer-tspan"><tspan font-weight="normal" class="text-inner-tspan" font-style="normal">SHIPMENT</tspan></tspan></text></g><g style="" transform="translate(-112.234375, -28.875)" class="label attribute-type"><g><rect style="stroke: none" class="background"></rect></g><text style="" y="-10.1"><tspan dy="1.1em" y="-0.1em" x="0" class="text-outer-tspan"><tspan font-weight="normal" class="text-inner-tspan" font-style="normal">string</tspan></tspan></text></g><g style="" transform="translate(-46.859375, -28.875)" class="label attribute-name"><g><rect style="stroke: none" class="background"></rect></g><text style="" y="-10.1"><tspan dy="1.1em" y="-0.1em" x="0" class="text-outer-tspan"><tspan font-weight="normal" class="text-inner-tspan" font-style="normal">shipmentId</tspan></tspan></text></g><g style="" transform="translate(93.3125, -28.875)" class="label attribute-keys"><g><rect style="stroke: none" class="background"></rect></g><text style="" y="-10.1"><tspan dy="1.1em" y="-0.1em" x="0" class="text-outer-tspan"><tspan font-weight="normal" class="text-inner-tspan" font-style="normal">PK</tspan></tspan></text></g><g style="" transform="translate(137.234375, -28.875)" class="label attribute-comment"><g><rect style="stroke: none" class="background"></rect></g><text style="" y="-10.1"><tspan dy="1.1em" y="-0.1em" x="0" class="text-outer-tspan"></tspan></text></g><g style="" transform="translate(-112.234375, 8.875)" class="label attribute-type"><g><rect style="stroke: none" class="background"></rect></g><text style="" y="-10.1"><tspan dy="1.1em" y="-0.1em" x="0" class="text-outer-tspan"><tspan font-weight="normal" class="text-inner-tspan" font-style="normal">date</tspan></tspan></text></g><g style="" transform="translate(-46.859375, 8.875)" class="label attribute-name"><g><rect style="stroke: none" class="background"></rect></g><text style="" y="-10.1"><tspan dy="1.1em" y="-0.1em" x="0" class="text-outer-tspan"><tspan font-weight="normal" class="text-inner-tspan" font-style="normal">shipmentDate</tspan></tspan></text></g><g style="" transform="translate(93.3125, 8.875)" class="label attribute-keys"><g><rect style="stroke: none" class="background"></rect></g><text style="" y="-10.1"><tspan dy="1.1em" y="-0.1em" x="0" class="text-outer-tspan"></tspan></text></g><g style="" transform="translate(137.234375, 8.875)" class="label attribute-comment"><g><rect style="stroke: none" class="background"></rect></g><text style="" y="-10.1"><tspan dy="1.1em" y="-0.1em" x="0" class="text-outer-tspan"></tspan></text></g><g style="" transform="translate(-112.234375, 46.625)" class="label attribute-type"><g><rect style="stroke: none" class="background"></rect></g><text style="" y="-10.1"><tspan dy="1.1em" y="-0.1em" x="0" class="text-outer-tspan"><tspan font-weight="normal" class="text-inner-tspan" font-style="normal">string</tspan></tspan></text></g><g style="" transform="translate(-46.859375, 46.625)" class="label attribute-name"><g><rect style="stroke: none" class="background"></rect></g><text style="" y="-10.1"><tspan dy="1.1em" y="-0.1em" x="0" class="text-outer-tspan"><tspan font-weight="normal" class="text-inner-tspan" font-style="normal">trackingNumber</tspan></tspan></text></g><g style="" transform="translate(93.3125, 46.625)" class="label attribute-keys"><g><rect style="stroke: none" class="background"></rect></g><text style="" y="-10.1"><tspan dy="1.1em" y="-0.1em" x="0" class="text-outer-tspan"></tspan></text></g><g style="" transform="translate(137.234375, 46.625)" class="label attribute-comment"><g><rect style="stroke: none" class="background"></rect></g><text style="" y="-10.1"><tspan dy="1.1em" y="-0.1em" x="0" class="text-outer-tspan"></tspan></text></g><g class="divider"><path fill="none" stroke-width="1.3" stroke="#1a468b" d="M-124.734375 -38.25 C-64.34925259150546 -38.25, -3.964130183010937 -38.25, 124.734375 -38.25 M-124.734375 -38.25 C-56.65897956224299 -38.25, 11.41641587551402 -38.25, 124.734375 -38.25"></path></g><g class="divider"><path fill="none" stroke-width="1.3" stroke="#1a468b" d="M-59.359375 -38.25 C-59.359375 -4.727804904537557, -59.359375 28.794390190924886, -59.359375 76 M-59.359375 -38.25 C-59.359375 -12.710123623222461, -59.359375 12.829752753555077, -59.359375 76"></path></g><g class="divider"><path fill="none" stroke-width="1.3" stroke="#1a468b" d="M80.8125 -38.25 C80.8125 -3.611456359829063, 80.8125 31.027087280341874, 80.8125 76 M80.8125 -38.25 C80.8125 -1.5335037388780535, 80.8125 35.18299252224389, 80.8125 76"></path></g><g class="divider"><path fill="none" stroke-width="1.3" stroke="#1a468b" d="M-124.734375 -0.5 C-34.306409941758474 -0.5, 56.12155511648305 -0.5, 124.734375 -0.5 M-124.734375 -0.5 C-49.08331338481845 -0.5, 26.567748230363094 -0.5, 124.734375 -0.5"></path></g><g class="divider"><path fill="none" stroke-width="1.3" stroke="#1a468b" d="M-124.734375 37.25 C-68.35571279684456 37.25, -11.977050593689114 37.25, 124.734375 37.25 M-124.734375 37.25 C-58.68188961381388 37.25, 7.370595772372241 37.25, 124.734375 37.25"></path></g><g class="divider"><path fill="none" stroke-width="1.3" stroke="#1a468b" d="M-124.734375 -38.25 C-42.76440250620561 -38.25, 39.205569987588774 -38.25, 124.734375 -38.25 M-124.734375 -38.25 C-34.04455482397009 -38.25, 56.64526535205982 -38.25, 124.734375 -38.25"></path></g></g><g transform="translate(578.23828125, 1018.875)" id="entity-DISCOUNT-7" class="node default"><g style=""><path fill="#ffffff" stroke-width="0" stroke="none" d="M-137.4375 -76 L137.4375 -76 L137.4375 76 L-137.4375 76"></path><path fill="none" stroke-width="1.3" stroke="#1a468b" d="M-137.4375 -76 C-36.11361417864853 -76, 65.21027164270293 -76, 137.4375 -76 M-137.4375 -76 C-79.69806724277508 -76, -21.958634485550164 -76, 137.4375 -76 M137.4375 -76 C137.4375 -30.987123914356104, 137.4375 14.025752171287792, 137.4375 76 M137.4375 -76 C137.4375 -40.71848129218688, 137.4375 -5.4369625843737595, 137.4375 76 M137.4375 76 C40.44276113782402 76, -56.55197772435196 76, -137.4375 76 M137.4375 76 C48.72062480543366 76, -39.99625038913268 76, -137.4375 76 M-137.4375 76 C-137.4375 21.907145169153075, -137.4375 -32.18570966169385, -137.4375 -76 M-137.4375 76 C-137.4375 25.015584442448628, -137.4375 -25.968831115102745, -137.4375 -76"></path></g><g class="row-rect-odd" style=""><path fill="#ffffff" stroke-width="0" stroke="none" d="M-137.4375 37.25 L137.4375 37.25 L137.4375 75 L-137.4375 75"></path><path fill="none" stroke-width="1.3" stroke="#1a468b" d="M-137.4375 37.25 C-43.660303257434165 37.25, 50.11689348513167 37.25, 137.4375 37.25 M-137.4375 37.25 C-46.84826636064405 37.25, 43.740967278711906 37.25, 137.4375 37.25 M137.4375 37.25 C137.4375 51.72942458328464, 137.4375 66.20884916656928, 137.4375 75 M137.4375 37.25 C137.4375 46.02917829490817, 137.4375 54.80835658981634, 137.4375 75 M137.4375 75 C78.676874335198 75, 19.916248670395973 75, -137.4375 75 M137.4375 75 C70.51116991623107 75, 3.584839832462137 75, -137.4375 75 M-137.4375 75 C-137.4375 61.23516447490316, -137.4375 47.470328949806316, -137.4375 37.25 M-137.4375 75 C-137.4375 64.04086998884485, -137.4375 53.08173997768969, -137.4375 37.25"></path></g><g class="row-rect-even" style=""><path fill="#ffffff" stroke-width="0" stroke="none" d="M-137.4375 -38.25 L137.4375 -38.25 L137.4375 -0.5 L-137.4375 -0.5"></path><path fill="none" stroke-width="1.3" stroke="#1a468b" d="M-137.4375 -38.25 C-73.81735387076678 -38.25, -10.19720774153356 -38.25, 137.4375 -38.25 M-137.4375 -38.25 C-57.11326145302482 -38.25, 23.210977093950362 -38.25, 137.4375 -38.25 M137.4375 -38.25 C137.4375 -27.1606252316823, 137.4375 -16.0712504633646, 137.4375 -0.5 M137.4375 -38.25 C137.4375 -29.007458875182415, 137.4375 -19.764917750364827, 137.4375 -0.5 M137.4375 -0.5 C37.78955285371097 -0.5, -61.858394292578055 -0.5, -137.4375 -0.5 M137.4375 -0.5 C40.04743821763857 -0.5, -57.34262356472286 -0.5, -137.4375 -0.5 M-137.4375 -0.5 C-137.4375 -12.611247230115689, -137.4375 -24.722494460231378, -137.4375 -38.25 M-137.4375 -0.5 C-137.4375 -12.479963093274351, -137.4375 -24.459926186548703, -137.4375 -38.25"></path></g><g style="" transform="translate(-36.44921875, -66.625)" class="label name"><g><rect style="stroke: none" class="background"></rect></g><text style="" y="-10.1"><tspan dy="1.1em" y="-0.1em" x="0" class="text-outer-tspan"><tspan font-weight="normal" class="text-inner-tspan" font-style="normal">DISCOUNT</tspan></tspan></text></g><g style="" transform="translate(-124.9375, -28.875)" class="label attribute-type"><g><rect style="stroke: none" class="background"></rect></g><text style="" y="-10.1"><tspan dy="1.1em" y="-0.1em" x="0" class="text-outer-tspan"><tspan font-weight="normal" class="text-inner-tspan" font-style="normal">string</tspan></tspan></text></g><g style="" transform="translate(-59.5625, -28.875)" class="label attribute-name"><g><rect style="stroke: none" class="background"></rect></g><text style="" y="-10.1"><tspan dy="1.1em" y="-0.1em" x="0" class="text-outer-tspan"><tspan font-weight="normal" class="text-inner-tspan" font-style="normal">discountId</tspan></tspan></text></g><g style="" transform="translate(106.015625, -28.875)" class="label attribute-keys"><g><rect style="stroke: none" class="background"></rect></g><text style="" y="-10.1"><tspan dy="1.1em" y="-0.1em" x="0" class="text-outer-tspan"><tspan font-weight="normal" class="text-inner-tspan" font-style="normal">PK</tspan></tspan></text></g><g style="" transform="translate(149.9375, -28.875)" class="label attribute-comment"><g><rect style="stroke: none" class="background"></rect></g><text style="" y="-10.1"><tspan dy="1.1em" y="-0.1em" x="0" class="text-outer-tspan"></tspan></text></g><g style="" transform="translate(-124.9375, 8.875)" class="label attribute-type"><g><rect style="stroke: none" class="background"></rect></g><text style="" y="-10.1"><tspan dy="1.1em" y="-0.1em" x="0" class="text-outer-tspan"><tspan font-weight="normal" class="text-inner-tspan" font-style="normal">float</tspan></tspan></text></g><g style="" transform="translate(-59.5625, 8.875)" class="label attribute-name"><g><rect style="stroke: none" class="background"></rect></g><text style="" y="-10.1"><tspan dy="1.1em" y="-0.1em" x="0" class="text-outer-tspan"><tspan font-weight="normal" class="text-inner-tspan" font-style="normal">discountPercentage</tspan></tspan></text></g><g style="" transform="translate(106.015625, 8.875)" class="label attribute-keys"><g><rect style="stroke: none" class="background"></rect></g><text style="" y="-10.1"><tspan dy="1.1em" y="-0.1em" x="0" class="text-outer-tspan"></tspan></text></g><g style="" transform="translate(149.9375, 8.875)" class="label attribute-comment"><g><rect style="stroke: none" class="background"></rect></g><text style="" y="-10.1"><tspan dy="1.1em" y="-0.1em" x="0" class="text-outer-tspan"></tspan></text></g><g style="" transform="translate(-124.9375, 46.625)" class="label attribute-type"><g><rect style="stroke: none" class="background"></rect></g><text style="" y="-10.1"><tspan dy="1.1em" y="-0.1em" x="0" class="text-outer-tspan"><tspan font-weight="normal" class="text-inner-tspan" font-style="normal">string</tspan></tspan></text></g><g style="" transform="translate(-59.5625, 46.625)" class="label attribute-name"><g><rect style="stroke: none" class="background"></rect></g><text style="" y="-10.1"><tspan dy="1.1em" y="-0.1em" x="0" class="text-outer-tspan"><tspan font-weight="normal" class="text-inner-tspan" font-style="normal">description</tspan></tspan></text></g><g style="" transform="translate(106.015625, 46.625)" class="label attribute-keys"><g><rect style="stroke: none" class="background"></rect></g><text style="" y="-10.1"><tspan dy="1.1em" y="-0.1em" x="0" class="text-outer-tspan"></tspan></text></g><g style="" transform="translate(149.9375, 46.625)" class="label attribute-comment"><g><rect style="stroke: none" class="background"></rect></g><text style="" y="-10.1"><tspan dy="1.1em" y="-0.1em" x="0" class="text-outer-tspan"></tspan></text></g><g class="divider"><path fill="none" stroke-width="1.3" stroke="#1a468b" d="M-137.4375 -38.25 C-53.00926735527169 -38.25, 31.418965289456622 -38.25, 137.4375 -38.25 M-137.4375 -38.25 C-74.66942943256782 -38.25, -11.901358865135649 -38.25, 137.4375 -38.25"></path></g><g class="divider"><path fill="none" stroke-width="1.3" stroke="#1a468b" d="M-72.0625 -38.25 C-72.0625 -11.865227775297772, -72.0625 14.519544449404457, -72.0625 76 M-72.0625 -38.25 C-72.0625 -2.427131190727451, -72.0625 33.3957376185451, -72.0625 76"></path></g><g class="divider"><path fill="none" stroke-width="1.3" stroke="#1a468b" d="M93.515625 -38.25 C93.515625 -12.839480170943265, 93.515625 12.57103965811347, 93.515625 76 M93.515625 -38.25 C93.515625 4.394718473467925, 93.515625 47.03943694693585, 93.515625 76"></path></g><g class="divider"><path fill="none" stroke-width="1.3" stroke="#1a468b" d="M-137.4375 -0.5 C-39.27717898214887 -0.5, 58.883142035702264 -0.5, 137.4375 -0.5 M-137.4375 -0.5 C-73.17607568709772 -0.5, -8.914651374195444 -0.5, 137.4375 -0.5"></path></g><g class="divider"><path fill="none" stroke-width="1.3" stroke="#1a468b" d="M-137.4375 37.25 C-78.71989303984223 37.25, -20.002286079684467 37.25, 137.4375 37.25 M-137.4375 37.25 C-34.0717092203201 37.25, 69.2940815593598 37.25, 137.4375 37.25"></path></g><g class="divider"><path fill="none" stroke-width="1.3" stroke="#1a468b" d="M-137.4375 -38.25 C-33.207881781448535 -38.25, 71.02173643710293 -38.25, 137.4375 -38.25 M-137.4375 -38.25 C-81.81632403755592 -38.25, -26.19514807511183 -38.25, 137.4375 -38.25"></path></g></g></g></g></g></svg>