<svg aria-roledescription="er" role="graphics-document document" viewBox="0 0 371.7734375 933" style="max-width: 371.7734375px;" class="erDiagram" xmlns="http://www.w3.org/2000/svg" width="100%" id="mermaidSvgId"><style>#mermaidSvgId{font-family:"trebuchet ms",verdana,arial,sans-serif;font-size:16px;fill:#0a0f14;}@keyframes edge-animation-frame{from{stroke-dashoffset:0;}}@keyframes dash{to{stroke-dashoffset:0;}}#mermaidSvgId .edge-animation-slow{stroke-dasharray:9,5!important;stroke-dashoffset:900;animation:dash 50s linear infinite;stroke-linecap:round;}#mermaidSvgId .edge-animation-fast{stroke-dasharray:9,5!important;stroke-dashoffset:900;animation:dash 20s linear infinite;stroke-linecap:round;}#mermaidSvgId .error-icon{fill:#ffebee;}#mermaidSvgId .error-text{fill:#c62828;stroke:#c62828;}#mermaidSvgId .edge-thickness-normal{stroke-width:1px;}#mermaidSvgId .edge-thickness-thick{stroke-width:3.5px;}#mermaidSvgId .edge-pattern-solid{stroke-dasharray:0;}#mermaidSvgId .edge-thickness-invisible{stroke-width:0;fill:none;}#mermaidSvgId .edge-pattern-dashed{stroke-dasharray:3;}#mermaidSvgId .edge-pattern-dotted{stroke-dasharray:2;}#mermaidSvgId .marker{fill:#0a0f14;stroke:#0a0f14;}#mermaidSvgId .marker.cross{stroke:#0a0f14;}#mermaidSvgId svg{font-family:"trebuchet ms",verdana,arial,sans-serif;font-size:16px;}#mermaidSvgId p{margin:0;}#mermaidSvgId .entityBox{fill:#ffffff;stroke:#1a468b;}#mermaidSvgId .relationshipLabelBox{fill:#bbd6f2;opacity:0.7;background-color:#bbd6f2;}#mermaidSvgId .relationshipLabelBox rect{opacity:0.5;}#mermaidSvgId .labelBkg{background-color:rgba(187, 214, 242, 0.5);}#mermaidSvgId .edgeLabel .label{fill:#1a468b;font-size:14px;}#mermaidSvgId .label{font-family:"trebuchet ms",verdana,arial,sans-serif;color:#0a0f14;}#mermaidSvgId .edge-pattern-dashed{stroke-dasharray:8,8;}#mermaidSvgId .node rect,#mermaidSvgId .node circle,#mermaidSvgId .node ellipse,#mermaidSvgId .node polygon{fill:#ffffff;stroke:#1a468b;stroke-width:1px;}#mermaidSvgId .relationshipLine{stroke:#0a0f14;stroke-width:1;fill:none;}#mermaidSvgId .marker{fill:none!important;stroke:#0a0f14!important;stroke-width:1;}#mermaidSvgId :root{--mermaid-font-family:"trebuchet ms",verdana,arial,sans-serif;}</style><g><defs><marker orient="auto" markerHeight="18" markerWidth="18" refY="9" refX="0" class="marker onlyOne er" id="mermaidSvgId_er-onlyOneStart"><path d="M9,0 L9,18 M15,0 L15,18"></path></marker></defs><defs><marker orient="auto" markerHeight="18" markerWidth="18" refY="9" refX="18" class="marker onlyOne er" id="mermaidSvgId_er-onlyOneEnd"><path d="M3,0 L3,18 M9,0 L9,18"></path></marker></defs><defs><marker orient="auto" markerHeight="18" markerWidth="30" refY="9" refX="0" class="marker zeroOrOne er" id="mermaidSvgId_er-zeroOrOneStart"><circle r="6" cy="9" cx="21" fill="white"></circle><path d="M9,0 L9,18"></path></marker></defs><defs><marker orient="auto" markerHeight="18" markerWidth="30" refY="9" refX="30" class="marker zeroOrOne er" id="mermaidSvgId_er-zeroOrOneEnd"><circle r="6" cy="9" cx="9" fill="white"></circle><path d="M21,0 L21,18"></path></marker></defs><defs><marker orient="auto" markerHeight="36" markerWidth="45" refY="18" refX="18" class="marker oneOrMore er" id="mermaidSvgId_er-oneOrMoreStart"><path d="M0,18 Q 18,0 36,18 Q 18,36 0,18 M42,9 L42,27"></path></marker></defs><defs><marker orient="auto" markerHeight="36" markerWidth="45" refY="18" refX="27" class="marker oneOrMore er" id="mermaidSvgId_er-oneOrMoreEnd"><path d="M3,9 L3,27 M9,18 Q27,0 45,18 Q27,36 9,18"></path></marker></defs><defs><marker orient="auto" markerHeight="36" markerWidth="57" refY="18" refX="18" class="marker zeroOrMore er" id="mermaidSvgId_er-zeroOrMoreStart"><circle r="6" cy="18" cx="48" fill="white"></circle><path d="M0,18 Q18,0 36,18 Q18,36 0,18"></path></marker></defs><defs><marker orient="auto" markerHeight="36" markerWidth="57" refY="18" refX="39" class="marker zeroOrMore er" id="mermaidSvgId_er-zeroOrMoreEnd"><circle r="6" cy="18" cx="9" fill="white"></circle><path d="M21,18 Q39,0 57,18 Q39,36 21,18"></path></marker></defs><g class="root"><g class="clusters"></g><g class="edgePaths"><path marker-end="url(#mermaidSvgId_er-zeroOrMoreEnd)" marker-start="url(#mermaidSvgId_er-onlyOneStart)" style="undefined;" class="edge-thickness-normal edge-pattern-solid relationshipLine" id="id_entity-PROJECT-0_entity-TASK-1_0" d="M120.039,452.75L120.039,461.333C120.039,469.917,120.039,487.083,127.407,504.25C134.775,521.417,149.51,538.583,156.878,547.167L164.246,555.75"></path><path marker-end="url(#mermaidSvgId_er-zeroOrMoreEnd)" marker-start="url(#mermaidSvgId_er-onlyOneStart)" style="undefined;" class="edge-thickness-normal edge-pattern-solid relationshipLine" id="id_entity-TASK-1_entity-SUBTASK-2_1" d="M229.482,707.75L229.482,716.333C229.482,724.917,229.482,742.083,229.482,759.25C229.482,776.417,229.482,793.583,229.482,802.167L229.482,810.75"></path><path marker-end="url(#mermaidSvgId_er-zeroOrMoreEnd)" marker-start="url(#mermaidSvgId_er-onlyOneStart)" style="undefined;" class="edge-thickness-normal edge-pattern-solid relationshipLine" id="id_entity-USER-3_entity-TASK-1_2" d="M294.719,160L302.087,168.583C309.455,177.167,324.19,194.333,331.558,227.313C338.926,260.292,338.926,309.083,338.926,357.875C338.926,406.667,338.926,455.458,331.558,488.438C324.19,521.417,309.455,538.583,302.087,547.167L294.719,555.75"></path><path marker-end="url(#mermaidSvgId_er-zeroOrMoreEnd)" marker-start="url(#mermaidSvgId_er-onlyOneStart)" style="undefined;" class="edge-thickness-normal edge-pattern-solid relationshipLine" id="id_entity-USER-3_entity-PROJECT-0_3" d="M164.246,160L156.878,168.583C149.51,177.167,134.775,194.333,127.407,211.5C120.039,228.667,120.039,245.833,120.039,254.417L120.039,263"></path></g><g class="edgeLabels"><g transform="translate(120.0390625, 504.25)" class="edgeLabel"><g transform="translate(-32.15234375, -11.5)" class="label"><g><rect height="23" width="64.3046875" y="-1" x="-2" style="" class="background"></rect><text style="" y="-10.1"><tspan dy="1.1em" y="-0.1em" x="0" class="text-outer-tspan"><tspan font-weight="normal" class="text-inner-tspan" font-style="normal">contains</tspan></tspan></text></g></g></g><g transform="translate(229.482421875, 759.25)" class="edgeLabel"><g transform="translate(-31.6640625, -11.5)" class="label"><g><rect height="23" width="63.328125" y="-1" x="-2" style="" class="background"></rect><text style="" y="-10.1"><tspan dy="1.1em" y="-0.1em" x="0" class="text-outer-tspan"><tspan font-weight="normal" class="text-inner-tspan" font-style="normal">includes</tspan></tspan></text></g></g></g><g transform="translate(338.92578125, 357.875)" class="edgeLabel"><g transform="translate(-26.84765625, -11.5)" class="label"><g><rect height="23" width="53.6953125" y="-1" x="-2" style="" class="background"></rect><text style="" y="-10.1"><tspan dy="1.1em" y="-0.1em" x="0" class="text-outer-tspan"><tspan font-weight="normal" class="text-inner-tspan" font-style="normal">assigns</tspan></tspan></text></g></g></g><g transform="translate(120.0390625, 211.5)" class="edgeLabel"><g transform="translate(-33.296875, -11.5)" class="label"><g><rect height="23" width="66.59375" y="-1" x="-2" style="" class="background"></rect><text style="" y="-10.1"><tspan dy="1.1em" y="-0.1em" x="0" class="text-outer-tspan"><tspan font-weight="normal" class="text-inner-tspan" font-style="normal">manages</tspan></tspan></text></g></g></g></g><g class="nodes"><g transform="translate(120.0390625, 357.875)" id="entity-PROJECT-0" class="node default"><g style=""><path fill="#ffffff" stroke-width="0" stroke="none" d="M-112.0390625 -94.875 L112.0390625 -94.875 L112.0390625 94.875 L-112.0390625 94.875"></path><path fill="none" stroke-width="1.3" stroke="#1a468b" d="M-112.0390625 -94.875 C-60.89175202176407 -94.875, -9.74444154352814 -94.875, 112.0390625 -94.875 M-112.0390625 -94.875 C-62.47622735315311 -94.875, -12.913392206306213 -94.875, 112.0390625 -94.875 M112.0390625 -94.875 C112.0390625 -21.790350108542256, 112.0390625 51.29429978291549, 112.0390625 94.875 M112.0390625 -94.875 C112.0390625 -25.993174111826093, 112.0390625 42.888651776347814, 112.0390625 94.875 M112.0390625 94.875 C45.06933965514294 94.875, -21.90038318971412 94.875, -112.0390625 94.875 M112.0390625 94.875 C56.142946591662046 94.875, 0.24683068332409164 94.875, -112.0390625 94.875 M-112.0390625 94.875 C-112.0390625 43.5319138684976, -112.0390625 -7.811172263004806, -112.0390625 -94.875 M-112.0390625 94.875 C-112.0390625 20.24993536769645, -112.0390625 -54.3751292646071, -112.0390625 -94.875"></path></g><g class="row-rect-odd" style=""><path fill="#ffffff" stroke-width="0" stroke="none" d="M-112.0390625 18.375 L112.0390625 18.375 L112.0390625 56.125 L-112.0390625 56.125"></path><path fill="none" stroke-width="1.3" stroke="#1a468b" d="M-112.0390625 18.375 C-38.42999998587591 18.375, 35.17906252824818 18.375, 112.0390625 18.375 M-112.0390625 18.375 C-42.20038420143865 18.375, 27.638294097122696 18.375, 112.0390625 18.375 M112.0390625 18.375 C112.0390625 26.621288505479143, 112.0390625 34.867577010958286, 112.0390625 56.125 M112.0390625 18.375 C112.0390625 26.13566778874018, 112.0390625 33.89633557748036, 112.0390625 56.125 M112.0390625 56.125 C53.94463643413631 56.125, -4.149789631727387 56.125, -112.0390625 56.125 M112.0390625 56.125 C32.388106394483614 56.125, -47.26284971103277 56.125, -112.0390625 56.125 M-112.0390625 56.125 C-112.0390625 45.91908268589481, -112.0390625 35.71316537178962, -112.0390625 18.375 M-112.0390625 56.125 C-112.0390625 47.912108919189464, -112.0390625 39.69921783837892, -112.0390625 18.375"></path></g><g class="row-rect-even" style=""><path fill="#ffffff" stroke-width="0" stroke="none" d="M-112.0390625 56.125 L112.0390625 56.125 L112.0390625 93.875 L-112.0390625 93.875"></path><path fill="none" stroke-width="1.3" stroke="#1a468b" d="M-112.0390625 56.125 C-48.353901760604096 56.125, 15.331258978791809 56.125, 112.0390625 56.125 M-112.0390625 56.125 C-33.73700256238173 56.125, 44.565057375236535 56.125, 112.0390625 56.125 M112.0390625 56.125 C112.0390625 69.79091163659696, 112.0390625 83.45682327319392, 112.0390625 93.875 M112.0390625 56.125 C112.0390625 69.99614475328603, 112.0390625 83.86728950657206, 112.0390625 93.875 M112.0390625 93.875 C53.57301514217245 93.875, -4.893032215655097 93.875, -112.0390625 93.875 M112.0390625 93.875 C25.475382251773112 93.875, -61.088297996453775 93.875, -112.0390625 93.875 M-112.0390625 93.875 C-112.0390625 81.676017888686, -112.0390625 69.47703577737201, -112.0390625 56.125 M-112.0390625 93.875 C-112.0390625 81.78327130883072, -112.0390625 69.69154261766144, -112.0390625 56.125"></path></g><g class="row-rect-odd" style=""><path fill="#ffffff" stroke-width="0" stroke="none" d="M-112.0390625 -57.125 L112.0390625 -57.125 L112.0390625 -19.375 L-112.0390625 -19.375"></path><path fill="none" stroke-width="1.3" stroke="#1a468b" d="M-112.0390625 -57.125 C-44.2353474497622 -57.125, 23.568367600475597 -57.125, 112.0390625 -57.125 M-112.0390625 -57.125 C-23.966558106178383 -57.125, 64.10594628764323 -57.125, 112.0390625 -57.125 M112.0390625 -57.125 C112.0390625 -48.806460320455685, 112.0390625 -40.487920640911376, 112.0390625 -19.375 M112.0390625 -57.125 C112.0390625 -47.98028032058346, 112.0390625 -38.83556064116692, 112.0390625 -19.375 M112.0390625 -19.375 C42.24219945561482 -19.375, -27.554663588770353 -19.375, -112.0390625 -19.375 M112.0390625 -19.375 C36.18596612654031 -19.375, -39.667130246919385 -19.375, -112.0390625 -19.375 M-112.0390625 -19.375 C-112.0390625 -33.54090343732851, -112.0390625 -47.70680687465702, -112.0390625 -57.125 M-112.0390625 -19.375 C-112.0390625 -34.40440544216379, -112.0390625 -49.43381088432759, -112.0390625 -57.125"></path></g><g style="" transform="translate(-32.390625, -85.5)" class="label name"><g><rect style="stroke: none" class="background"></rect></g><text style="" y="-10.1"><tspan dy="1.1em" y="-0.1em" x="0" class="text-outer-tspan"><tspan font-weight="normal" class="text-inner-tspan" font-style="normal">PROJECT</tspan></tspan></text></g><g style="" transform="translate(-99.5390625, -47.75)" class="label attribute-type"><g><rect style="stroke: none" class="background"></rect></g><text style="" y="-10.1"><tspan dy="1.1em" y="-0.1em" x="0" class="text-outer-tspan"><tspan font-weight="normal" class="text-inner-tspan" font-style="normal">string</tspan></tspan></text></g><g style="" transform="translate(-34.1640625, -47.75)" class="label attribute-name"><g><rect style="stroke: none" class="background"></rect></g><text style="" y="-10.1"><tspan dy="1.1em" y="-0.1em" x="0" class="text-outer-tspan"><tspan font-weight="normal" class="text-inner-tspan" font-style="normal">projectName</tspan></tspan></text></g><g style="" transform="translate(124.5390625, -47.75)" class="label attribute-keys"><g><rect style="stroke: none" class="background"></rect></g><text style="" y="-10.1"><tspan dy="1.1em" y="-0.1em" x="0" class="text-outer-tspan"></tspan></text></g><g style="" transform="translate(124.5390625, -47.75)" class="label attribute-comment"><g><rect style="stroke: none" class="background"></rect></g><text style="" y="-10.1"><tspan dy="1.1em" y="-0.1em" x="0" class="text-outer-tspan"></tspan></text></g><g style="" transform="translate(-99.5390625, -10)" class="label attribute-type"><g><rect style="stroke: none" class="background"></rect></g><text style="" y="-10.1"><tspan dy="1.1em" y="-0.1em" x="0" class="text-outer-tspan"><tspan font-weight="normal" class="text-inner-tspan" font-style="normal">string</tspan></tspan></text></g><g style="" transform="translate(-34.1640625, -10)" class="label attribute-name"><g><rect style="stroke: none" class="background"></rect></g><text style="" y="-10.1"><tspan dy="1.1em" y="-0.1em" x="0" class="text-outer-tspan"><tspan font-weight="normal" class="text-inner-tspan" font-style="normal">projectDescription</tspan></tspan></text></g><g style="" transform="translate(124.5390625, -10)" class="label attribute-keys"><g><rect style="stroke: none" class="background"></rect></g><text style="" y="-10.1"><tspan dy="1.1em" y="-0.1em" x="0" class="text-outer-tspan"></tspan></text></g><g style="" transform="translate(124.5390625, -10)" class="label attribute-comment"><g><rect style="stroke: none" class="background"></rect></g><text style="" y="-10.1"><tspan dy="1.1em" y="-0.1em" x="0" class="text-outer-tspan"></tspan></text></g><g style="" transform="translate(-99.5390625, 27.75)" class="label attribute-type"><g><rect style="stroke: none" class="background"></rect></g><text style="" y="-10.1"><tspan dy="1.1em" y="-0.1em" x="0" class="text-outer-tspan"><tspan font-weight="normal" class="text-inner-tspan" font-style="normal">date</tspan></tspan></text></g><g style="" transform="translate(-34.1640625, 27.75)" class="label attribute-name"><g><rect style="stroke: none" class="background"></rect></g><text style="" y="-10.1"><tspan dy="1.1em" y="-0.1em" x="0" class="text-outer-tspan"><tspan font-weight="normal" class="text-inner-tspan" font-style="normal">startDate</tspan></tspan></text></g><g style="" transform="translate(124.5390625, 27.75)" class="label attribute-keys"><g><rect style="stroke: none" class="background"></rect></g><text style="" y="-10.1"><tspan dy="1.1em" y="-0.1em" x="0" class="text-outer-tspan"></tspan></text></g><g style="" transform="translate(124.5390625, 27.75)" class="label attribute-comment"><g><rect style="stroke: none" class="background"></rect></g><text style="" y="-10.1"><tspan dy="1.1em" y="-0.1em" x="0" class="text-outer-tspan"></tspan></text></g><g style="" transform="translate(-99.5390625, 65.5)" class="label attribute-type"><g><rect style="stroke: none" class="background"></rect></g><text style="" y="-10.1"><tspan dy="1.1em" y="-0.1em" x="0" class="text-outer-tspan"><tspan font-weight="normal" class="text-inner-tspan" font-style="normal">date</tspan></tspan></text></g><g style="" transform="translate(-34.1640625, 65.5)" class="label attribute-name"><g><rect style="stroke: none" class="background"></rect></g><text style="" y="-10.1"><tspan dy="1.1em" y="-0.1em" x="0" class="text-outer-tspan"><tspan font-weight="normal" class="text-inner-tspan" font-style="normal">endDate</tspan></tspan></text></g><g style="" transform="translate(124.5390625, 65.5)" class="label attribute-keys"><g><rect style="stroke: none" class="background"></rect></g><text style="" y="-10.1"><tspan dy="1.1em" y="-0.1em" x="0" class="text-outer-tspan"></tspan></text></g><g style="" transform="translate(124.5390625, 65.5)" class="label attribute-comment"><g><rect style="stroke: none" class="background"></rect></g><text style="" y="-10.1"><tspan dy="1.1em" y="-0.1em" x="0" class="text-outer-tspan"></tspan></text></g><g class="divider"><path fill="none" stroke-width="1.3" stroke="#1a468b" d="M-112.0390625 -57.125 C-26.75672485019139 -57.125, 58.52561279961722 -57.125, 112.0390625 -57.125 M-112.0390625 -57.125 C-66.32189596909426 -57.125, -20.604729438188514 -57.125, 112.0390625 -57.125"></path></g><g class="divider"><path fill="none" stroke-width="1.3" stroke="#1a468b" d="M-46.6640625 -57.125 C-46.6640625 0.9727368939051715, -46.6640625 59.07047378781034, -46.6640625 94.875 M-46.6640625 -57.125 C-46.6640625 -21.87553896452765, -46.6640625 13.373922070944701, -46.6640625 94.875"></path></g><g class="divider"><path fill="none" stroke-width="1.3" stroke="#1a468b" d="M-112.0390625 -19.375 C-62.540331881950195 -19.375, -13.04160126390039 -19.375, 112.0390625 -19.375 M-112.0390625 -19.375 C-66.82961504978378 -19.375, -21.620167599567566 -19.375, 112.0390625 -19.375"></path></g><g class="divider"><path fill="none" stroke-width="1.3" stroke="#1a468b" d="M-112.0390625 18.375 C-27.234737449743648 18.375, 57.569587600512705 18.375, 112.0390625 18.375 M-112.0390625 18.375 C-39.72318805573907 18.375, 32.592686388521855 18.375, 112.0390625 18.375"></path></g><g class="divider"><path fill="none" stroke-width="1.3" stroke="#1a468b" d="M-112.0390625 56.125 C-42.49536268527649 56.125, 27.04833712944702 56.125, 112.0390625 56.125 M-112.0390625 56.125 C-60.34432589228442 56.125, -8.649589284568833 56.125, 112.0390625 56.125"></path></g><g class="divider"><path fill="none" stroke-width="1.3" stroke="#1a468b" d="M-112.0390625 -57.125 C-53.960527969310704 -57.125, 4.118006561378593 -57.125, 112.0390625 -57.125 M-112.0390625 -57.125 C-41.32934394769356 -57.125, 29.380374604612882 -57.125, 112.0390625 -57.125"></path></g></g><g transform="translate(229.482421875, 631.75)" id="entity-TASK-1" class="node default"><g style=""><path fill="#ffffff" stroke-width="0" stroke="none" d="M-82.1015625 -76 L82.1015625 -76 L82.1015625 76 L-82.1015625 76"></path><path fill="none" stroke-width="1.3" stroke="#1a468b" d="M-82.1015625 -76 C-33.59272677994273 -76, 14.91610894011454 -76, 82.1015625 -76 M-82.1015625 -76 C-25.861202966268024 -76, 30.37915656746395 -76, 82.1015625 -76 M82.1015625 -76 C82.1015625 -38.05961274160589, 82.1015625 -0.11922548321177828, 82.1015625 76 M82.1015625 -76 C82.1015625 -34.107853595506576, 82.1015625 7.784292808986848, 82.1015625 76 M82.1015625 76 C19.74930297680605 76, -42.6029565463879 76, -82.1015625 76 M82.1015625 76 C28.15708240203554 76, -25.787397695928917 76, -82.1015625 76 M-82.1015625 76 C-82.1015625 20.922515839542207, -82.1015625 -34.154968320915586, -82.1015625 -76 M-82.1015625 76 C-82.1015625 37.090715722237256, -82.1015625 -1.8185685555254878, -82.1015625 -76"></path></g><g class="row-rect-odd" style=""><path fill="#ffffff" stroke-width="0" stroke="none" d="M-82.1015625 37.25 L82.1015625 37.25 L82.1015625 75 L-82.1015625 75"></path><path fill="none" stroke-width="1.3" stroke="#1a468b" d="M-82.1015625 37.25 C-22.19525064020253 37.25, 37.71106121959494 37.25, 82.1015625 37.25 M-82.1015625 37.25 C-28.16831776414832 37.25, 25.76492697170336 37.25, 82.1015625 37.25 M82.1015625 37.25 C82.1015625 49.46299040431802, 82.1015625 61.675980808636034, 82.1015625 75 M82.1015625 37.25 C82.1015625 50.13881922394697, 82.1015625 63.02763844789394, 82.1015625 75 M82.1015625 75 C19.643680214732377 75, -42.814202070535245 75, -82.1015625 75 M82.1015625 75 C35.999439161770425 75, -10.10268417645915 75, -82.1015625 75 M-82.1015625 75 C-82.1015625 63.7763344636736, -82.1015625 52.5526689273472, -82.1015625 37.25 M-82.1015625 75 C-82.1015625 64.43761943394126, -82.1015625 53.875238867882516, -82.1015625 37.25"></path></g><g class="row-rect-even" style=""><path fill="#ffffff" stroke-width="0" stroke="none" d="M-82.1015625 -38.25 L82.1015625 -38.25 L82.1015625 -0.5 L-82.1015625 -0.5"></path><path fill="none" stroke-width="1.3" stroke="#1a468b" d="M-82.1015625 -38.25 C-24.479668790769644 -38.25, 33.14222491846071 -38.25, 82.1015625 -38.25 M-82.1015625 -38.25 C-19.78724323042087 -38.25, 42.52707603915826 -38.25, 82.1015625 -38.25 M82.1015625 -38.25 C82.1015625 -24.08415077541647, 82.1015625 -9.918301550832943, 82.1015625 -0.5 M82.1015625 -38.25 C82.1015625 -28.722197157008495, 82.1015625 -19.194394314016993, 82.1015625 -0.5 M82.1015625 -0.5 C30.864255480111602 -0.5, -20.373051539776796 -0.5, -82.1015625 -0.5 M82.1015625 -0.5 C46.52693960966947 -0.5, 10.952316719338938 -0.5, -82.1015625 -0.5 M-82.1015625 -0.5 C-82.1015625 -8.485384998338793, -82.1015625 -16.470769996677586, -82.1015625 -38.25 M-82.1015625 -0.5 C-82.1015625 -12.118099742320839, -82.1015625 -23.736199484641677, -82.1015625 -38.25"></path></g><g style="" transform="translate(-17.93359375, -66.625)" class="label name"><g><rect style="stroke: none" class="background"></rect></g><text style="" y="-10.1"><tspan dy="1.1em" y="-0.1em" x="0" class="text-outer-tspan"><tspan font-weight="normal" class="text-inner-tspan" font-style="normal">TASK</tspan></tspan></text></g><g style="" transform="translate(-69.6015625, -28.875)" class="label attribute-type"><g><rect style="stroke: none" class="background"></rect></g><text style="" y="-10.1"><tspan dy="1.1em" y="-0.1em" x="0" class="text-outer-tspan"><tspan font-weight="normal" class="text-inner-tspan" font-style="normal">string</tspan></tspan></text></g><g style="" transform="translate(-4.2265625, -28.875)" class="label attribute-name"><g><rect style="stroke: none" class="background"></rect></g><text style="" y="-10.1"><tspan dy="1.1em" y="-0.1em" x="0" class="text-outer-tspan"><tspan font-weight="normal" class="text-inner-tspan" font-style="normal">taskName</tspan></tspan></text></g><g style="" transform="translate(94.6015625, -28.875)" class="label attribute-keys"><g><rect style="stroke: none" class="background"></rect></g><text style="" y="-10.1"><tspan dy="1.1em" y="-0.1em" x="0" class="text-outer-tspan"></tspan></text></g><g style="" transform="translate(94.6015625, -28.875)" class="label attribute-comment"><g><rect style="stroke: none" class="background"></rect></g><text style="" y="-10.1"><tspan dy="1.1em" y="-0.1em" x="0" class="text-outer-tspan"></tspan></text></g><g style="" transform="translate(-69.6015625, 8.875)" class="label attribute-type"><g><rect style="stroke: none" class="background"></rect></g><text style="" y="-10.1"><tspan dy="1.1em" y="-0.1em" x="0" class="text-outer-tspan"><tspan font-weight="normal" class="text-inner-tspan" font-style="normal">string</tspan></tspan></text></g><g style="" transform="translate(-4.2265625, 8.875)" class="label attribute-name"><g><rect style="stroke: none" class="background"></rect></g><text style="" y="-10.1"><tspan dy="1.1em" y="-0.1em" x="0" class="text-outer-tspan"><tspan font-weight="normal" class="text-inner-tspan" font-style="normal">taskStatus</tspan></tspan></text></g><g style="" transform="translate(94.6015625, 8.875)" class="label attribute-keys"><g><rect style="stroke: none" class="background"></rect></g><text style="" y="-10.1"><tspan dy="1.1em" y="-0.1em" x="0" class="text-outer-tspan"></tspan></text></g><g style="" transform="translate(94.6015625, 8.875)" class="label attribute-comment"><g><rect style="stroke: none" class="background"></rect></g><text style="" y="-10.1"><tspan dy="1.1em" y="-0.1em" x="0" class="text-outer-tspan"></tspan></text></g><g style="" transform="translate(-69.6015625, 46.625)" class="label attribute-type"><g><rect style="stroke: none" class="background"></rect></g><text style="" y="-10.1"><tspan dy="1.1em" y="-0.1em" x="0" class="text-outer-tspan"><tspan font-weight="normal" class="text-inner-tspan" font-style="normal">int</tspan></tspan></text></g><g style="" transform="translate(-4.2265625, 46.625)" class="label attribute-name"><g><rect style="stroke: none" class="background"></rect></g><text style="" y="-10.1"><tspan dy="1.1em" y="-0.1em" x="0" class="text-outer-tspan"><tspan font-weight="normal" class="text-inner-tspan" font-style="normal">priority</tspan></tspan></text></g><g style="" transform="translate(94.6015625, 46.625)" class="label attribute-keys"><g><rect style="stroke: none" class="background"></rect></g><text style="" y="-10.1"><tspan dy="1.1em" y="-0.1em" x="0" class="text-outer-tspan"></tspan></text></g><g style="" transform="translate(94.6015625, 46.625)" class="label attribute-comment"><g><rect style="stroke: none" class="background"></rect></g><text style="" y="-10.1"><tspan dy="1.1em" y="-0.1em" x="0" class="text-outer-tspan"></tspan></text></g><g class="divider"><path fill="none" stroke-width="1.3" stroke="#1a468b" d="M-82.1015625 -38.25 C-27.916456144333154 -38.25, 26.268650211333693 -38.25, 82.1015625 -38.25 M-82.1015625 -38.25 C-31.214026523931743 -38.25, 19.673509452136514 -38.25, 82.1015625 -38.25"></path></g><g class="divider"><path fill="none" stroke-width="1.3" stroke="#1a468b" d="M-16.7265625 -38.25 C-16.7265625 -4.811995969724023, -16.7265625 28.626008060551953, -16.7265625 76 M-16.7265625 -38.25 C-16.7265625 -9.686681842594066, -16.7265625 18.87663631481187, -16.7265625 76"></path></g><g class="divider"><path fill="none" stroke-width="1.3" stroke="#1a468b" d="M-82.1015625 -0.5 C-37.68054380174008 -0.5, 6.740474896519842 -0.5, 82.1015625 -0.5 M-82.1015625 -0.5 C-32.200900174708316 -0.5, 17.699762150583368 -0.5, 82.1015625 -0.5"></path></g><g class="divider"><path fill="none" stroke-width="1.3" stroke="#1a468b" d="M-82.1015625 37.25 C-27.47650720049419 37.25, 27.14854809901162 37.25, 82.1015625 37.25 M-82.1015625 37.25 C-37.11075855169068 37.25, 7.880045396618641 37.25, 82.1015625 37.25"></path></g><g class="divider"><path fill="none" stroke-width="1.3" stroke="#1a468b" d="M-82.1015625 -38.25 C-44.514857048987764 -38.25, -6.928151597975528 -38.25, 82.1015625 -38.25 M-82.1015625 -38.25 C-24.338742800282255 -38.25, 33.42407689943549 -38.25, 82.1015625 -38.25"></path></g></g><g transform="translate(229.482421875, 867.875)" id="entity-SUBTASK-2" class="node default"><g style=""><path fill="#ffffff" stroke-width="0" stroke="none" d="M-100.6328125 -57.125 L100.6328125 -57.125 L100.6328125 57.125 L-100.6328125 57.125"></path><path fill="none" stroke-width="1.3" stroke="#1a468b" d="M-100.6328125 -57.125 C-59.78874105728957 -57.125, -18.94466961457914 -57.125, 100.6328125 -57.125 M-100.6328125 -57.125 C-47.38609583117168 -57.125, 5.86062083765664 -57.125, 100.6328125 -57.125 M100.6328125 -57.125 C100.6328125 -31.358243261546747, 100.6328125 -5.591486523093494, 100.6328125 57.125 M100.6328125 -57.125 C100.6328125 -22.77090705205522, 100.6328125 11.583185895889557, 100.6328125 57.125 M100.6328125 57.125 C36.90939403507174 57.125, -26.814024429856516 57.125, -100.6328125 57.125 M100.6328125 57.125 C20.240355428272437 57.125, -60.152101643455126 57.125, -100.6328125 57.125 M-100.6328125 57.125 C-100.6328125 21.346565996595665, -100.6328125 -14.43186800680867, -100.6328125 -57.125 M-100.6328125 57.125 C-100.6328125 19.88013596990608, -100.6328125 -17.364728060187844, -100.6328125 -57.125"></path></g><g class="row-rect-odd" style=""><path fill="#ffffff" stroke-width="0" stroke="none" d="M-100.6328125 -19.375 L100.6328125 -19.375 L100.6328125 18.375 L-100.6328125 18.375"></path><path fill="none" stroke-width="1.3" stroke="#1a468b" d="M-100.6328125 -19.375 C-25.093021278118442 -19.375, 50.446769943763115 -19.375, 100.6328125 -19.375 M-100.6328125 -19.375 C-25.80326905996516 -19.375, 49.02627438006968 -19.375, 100.6328125 -19.375 M100.6328125 -19.375 C100.6328125 -8.070586943088024, 100.6328125 3.2338261138239517, 100.6328125 18.375 M100.6328125 -19.375 C100.6328125 -9.656169113102802, 100.6328125 0.06266177379439597, 100.6328125 18.375 M100.6328125 18.375 C30.24763706640735 18.375, -40.1375383671853 18.375, -100.6328125 18.375 M100.6328125 18.375 C26.722359378582695 18.375, -47.18809374283461 18.375, -100.6328125 18.375 M-100.6328125 18.375 C-100.6328125 4.008656942535358, -100.6328125 -10.357686114929283, -100.6328125 -19.375 M-100.6328125 18.375 C-100.6328125 4.146841783778207, -100.6328125 -10.081316432443586, -100.6328125 -19.375"></path></g><g style="" transform="translate(-30.99609375, -47.75)" class="label name"><g><rect style="stroke: none" class="background"></rect></g><text style="" y="-10.1"><tspan dy="1.1em" y="-0.1em" x="0" class="text-outer-tspan"><tspan font-weight="normal" class="text-inner-tspan" font-style="normal">SUBTASK</tspan></tspan></text></g><g style="" transform="translate(-88.1328125, -10)" class="label attribute-type"><g><rect style="stroke: none" class="background"></rect></g><text style="" y="-10.1"><tspan dy="1.1em" y="-0.1em" x="0" class="text-outer-tspan"><tspan font-weight="normal" class="text-inner-tspan" font-style="normal">string</tspan></tspan></text></g><g style="" transform="translate(-6.1953125, -10)" class="label attribute-name"><g><rect style="stroke: none" class="background"></rect></g><text style="" y="-10.1"><tspan dy="1.1em" y="-0.1em" x="0" class="text-outer-tspan"><tspan font-weight="normal" class="text-inner-tspan" font-style="normal">subtaskName</tspan></tspan></text></g><g style="" transform="translate(113.1328125, -10)" class="label attribute-keys"><g><rect style="stroke: none" class="background"></rect></g><text style="" y="-10.1"><tspan dy="1.1em" y="-0.1em" x="0" class="text-outer-tspan"></tspan></text></g><g style="" transform="translate(113.1328125, -10)" class="label attribute-comment"><g><rect style="stroke: none" class="background"></rect></g><text style="" y="-10.1"><tspan dy="1.1em" y="-0.1em" x="0" class="text-outer-tspan"></tspan></text></g><g style="" transform="translate(-88.1328125, 27.75)" class="label attribute-type"><g><rect style="stroke: none" class="background"></rect></g><text style="" y="-10.1"><tspan dy="1.1em" y="-0.1em" x="0" class="text-outer-tspan"><tspan font-weight="normal" class="text-inner-tspan" font-style="normal">boolean</tspan></tspan></text></g><g style="" transform="translate(-6.1953125, 27.75)" class="label attribute-name"><g><rect style="stroke: none" class="background"></rect></g><text style="" y="-10.1"><tspan dy="1.1em" y="-0.1em" x="0" class="text-outer-tspan"><tspan font-weight="normal" class="text-inner-tspan" font-style="normal">isCompleted</tspan></tspan></text></g><g style="" transform="translate(113.1328125, 27.75)" class="label attribute-keys"><g><rect style="stroke: none" class="background"></rect></g><text style="" y="-10.1"><tspan dy="1.1em" y="-0.1em" x="0" class="text-outer-tspan"></tspan></text></g><g style="" transform="translate(113.1328125, 27.75)" class="label attribute-comment"><g><rect style="stroke: none" class="background"></rect></g><text style="" y="-10.1"><tspan dy="1.1em" y="-0.1em" x="0" class="text-outer-tspan"></tspan></text></g><g class="divider"><path fill="none" stroke-width="1.3" stroke="#1a468b" d="M-100.6328125 -19.375 C-26.293361020680678 -19.375, 48.046090458638645 -19.375, 100.6328125 -19.375 M-100.6328125 -19.375 C-20.218381407478006 -19.375, 60.19604968504399 -19.375, 100.6328125 -19.375"></path></g><g class="divider"><path fill="none" stroke-width="1.3" stroke="#1a468b" d="M-18.6953125 -19.375 C-18.6953125 -3.4746518182070734, -18.6953125 12.425696363585853, -18.6953125 57.125 M-18.6953125 -19.375 C-18.6953125 -0.5081651401085487, -18.6953125 18.358669719782903, -18.6953125 57.125"></path></g><g class="divider"><path fill="none" stroke-width="1.3" stroke="#1a468b" d="M-100.6328125 18.375 C-32.455105462954165 18.375, 35.72260157409167 18.375, 100.6328125 18.375 M-100.6328125 18.375 C-48.632423189079645 18.375, 3.367966121840709 18.375, 100.6328125 18.375"></path></g><g class="divider"><path fill="none" stroke-width="1.3" stroke="#1a468b" d="M-100.6328125 -19.375 C-37.01812800471875 -19.375, 26.596556490562506 -19.375, 100.6328125 -19.375 M-100.6328125 -19.375 C-21.31642949354078 -19.375, 57.99995351291844 -19.375, 100.6328125 -19.375"></path></g></g><g transform="translate(229.482421875, 84)" id="entity-USER-3" class="node default"><g style=""><path fill="#ffffff" stroke-width="0" stroke="none" d="M-79.984375 -76 L79.984375 -76 L79.984375 76 L-79.984375 76"></path><path fill="none" stroke-width="1.3" stroke="#1a468b" d="M-79.984375 -76 C-37.38564800601496 -76, 5.2130789879700785 -76, 79.984375 -76 M-79.984375 -76 C-23.4467506843066 -76, 33.0908736313868 -76, 79.984375 -76 M79.984375 -76 C79.984375 -38.901775739476484, 79.984375 -1.8035514789529685, 79.984375 76 M79.984375 -76 C79.984375 -19.219809792741195, 79.984375 37.56038041451761, 79.984375 76 M79.984375 76 C25.783206221677872 76, -28.417962556644255 76, -79.984375 76 M79.984375 76 C36.06384509953418 76, -7.856684800931646 76, -79.984375 76 M-79.984375 76 C-79.984375 29.14747008696188, -79.984375 -17.705059826076237, -79.984375 -76 M-79.984375 76 C-79.984375 37.707452477181775, -79.984375 -0.5850950456364501, -79.984375 -76"></path></g><g class="row-rect-odd" style=""><path fill="#ffffff" stroke-width="0" stroke="none" d="M-79.984375 37.25 L79.984375 37.25 L79.984375 75 L-79.984375 75"></path><path fill="none" stroke-width="1.3" stroke="#1a468b" d="M-79.984375 37.25 C-33.23756299262893 37.25, 13.509249014742139 37.25, 79.984375 37.25 M-79.984375 37.25 C-21.79071147015968 37.25, 36.40295205968064 37.25, 79.984375 37.25 M79.984375 37.25 C79.984375 48.291172465121306, 79.984375 59.33234493024261, 79.984375 75 M79.984375 37.25 C79.984375 47.73699984342318, 79.984375 58.22399968684635, 79.984375 75 M79.984375 75 C24.27001535721933 75, -31.444344285561343 75, -79.984375 75 M79.984375 75 C23.65577983947233 75, -32.67281532105534 75, -79.984375 75 M-79.984375 75 C-79.984375 59.97946507769505, -79.984375 44.9589301553901, -79.984375 37.25 M-79.984375 75 C-79.984375 66.84307563078065, -79.984375 58.68615126156129, -79.984375 37.25"></path></g><g class="row-rect-even" style=""><path fill="#ffffff" stroke-width="0" stroke="none" d="M-79.984375 -38.25 L79.984375 -38.25 L79.984375 -0.5 L-79.984375 -0.5"></path><path fill="none" stroke-width="1.3" stroke="#1a468b" d="M-79.984375 -38.25 C-32.80027359194391 -38.25, 14.383827816112174 -38.25, 79.984375 -38.25 M-79.984375 -38.25 C-23.74083381836433 -38.25, 32.50270736327134 -38.25, 79.984375 -38.25 M79.984375 -38.25 C79.984375 -30.273857720461265, 79.984375 -22.29771544092253, 79.984375 -0.5 M79.984375 -38.25 C79.984375 -26.907624782989483, 79.984375 -15.565249565978966, 79.984375 -0.5 M79.984375 -0.5 C31.354224073885412 -0.5, -17.275926852229176 -0.5, -79.984375 -0.5 M79.984375 -0.5 C46.152071935688 -0.5, 12.319768871375999 -0.5, -79.984375 -0.5 M-79.984375 -0.5 C-79.984375 -14.628866968724846, -79.984375 -28.757733937449693, -79.984375 -38.25 M-79.984375 -0.5 C-79.984375 -8.989392109608627, -79.984375 -17.478784219217253, -79.984375 -38.25"></path></g><g style="" transform="translate(-18.3203125, -66.625)" class="label name"><g><rect style="stroke: none" class="background"></rect></g><text style="" y="-10.1"><tspan dy="1.1em" y="-0.1em" x="0" class="text-outer-tspan"><tspan font-weight="normal" class="text-inner-tspan" font-style="normal">USER</tspan></tspan></text></g><g style="" transform="translate(-67.484375, -28.875)" class="label attribute-type"><g><rect style="stroke: none" class="background"></rect></g><text style="" y="-10.1"><tspan dy="1.1em" y="-0.1em" x="0" class="text-outer-tspan"><tspan font-weight="normal" class="text-inner-tspan" font-style="normal">string</tspan></tspan></text></g><g style="" transform="translate(-2.109375, -28.875)" class="label attribute-name"><g><rect style="stroke: none" class="background"></rect></g><text style="" y="-10.1"><tspan dy="1.1em" y="-0.1em" x="0" class="text-outer-tspan"><tspan font-weight="normal" class="text-inner-tspan" font-style="normal">username</tspan></tspan></text></g><g style="" transform="translate(92.484375, -28.875)" class="label attribute-keys"><g><rect style="stroke: none" class="background"></rect></g><text style="" y="-10.1"><tspan dy="1.1em" y="-0.1em" x="0" class="text-outer-tspan"></tspan></text></g><g style="" transform="translate(92.484375, -28.875)" class="label attribute-comment"><g><rect style="stroke: none" class="background"></rect></g><text style="" y="-10.1"><tspan dy="1.1em" y="-0.1em" x="0" class="text-outer-tspan"></tspan></text></g><g style="" transform="translate(-67.484375, 8.875)" class="label attribute-type"><g><rect style="stroke: none" class="background"></rect></g><text style="" y="-10.1"><tspan dy="1.1em" y="-0.1em" x="0" class="text-outer-tspan"><tspan font-weight="normal" class="text-inner-tspan" font-style="normal">string</tspan></tspan></text></g><g style="" transform="translate(-2.109375, 8.875)" class="label attribute-name"><g><rect style="stroke: none" class="background"></rect></g><text style="" y="-10.1"><tspan dy="1.1em" y="-0.1em" x="0" class="text-outer-tspan"><tspan font-weight="normal" class="text-inner-tspan" font-style="normal">email</tspan></tspan></text></g><g style="" transform="translate(92.484375, 8.875)" class="label attribute-keys"><g><rect style="stroke: none" class="background"></rect></g><text style="" y="-10.1"><tspan dy="1.1em" y="-0.1em" x="0" class="text-outer-tspan"></tspan></text></g><g style="" transform="translate(92.484375, 8.875)" class="label attribute-comment"><g><rect style="stroke: none" class="background"></rect></g><text style="" y="-10.1"><tspan dy="1.1em" y="-0.1em" x="0" class="text-outer-tspan"></tspan></text></g><g style="" transform="translate(-67.484375, 46.625)" class="label attribute-type"><g><rect style="stroke: none" class="background"></rect></g><text style="" y="-10.1"><tspan dy="1.1em" y="-0.1em" x="0" class="text-outer-tspan"><tspan font-weight="normal" class="text-inner-tspan" font-style="normal">string</tspan></tspan></text></g><g style="" transform="translate(-2.109375, 46.625)" class="label attribute-name"><g><rect style="stroke: none" class="background"></rect></g><text style="" y="-10.1"><tspan dy="1.1em" y="-0.1em" x="0" class="text-outer-tspan"><tspan font-weight="normal" class="text-inner-tspan" font-style="normal">role</tspan></tspan></text></g><g style="" transform="translate(92.484375, 46.625)" class="label attribute-keys"><g><rect style="stroke: none" class="background"></rect></g><text style="" y="-10.1"><tspan dy="1.1em" y="-0.1em" x="0" class="text-outer-tspan"></tspan></text></g><g style="" transform="translate(92.484375, 46.625)" class="label attribute-comment"><g><rect style="stroke: none" class="background"></rect></g><text style="" y="-10.1"><tspan dy="1.1em" y="-0.1em" x="0" class="text-outer-tspan"></tspan></text></g><g class="divider"><path fill="none" stroke-width="1.3" stroke="#1a468b" d="M-79.984375 -38.25 C-38.16670467004188 -38.25, 3.6509656599162383 -38.25, 79.984375 -38.25 M-79.984375 -38.25 C-37.67856109233653 -38.25, 4.6272528153269405 -38.25, 79.984375 -38.25"></path></g><g class="divider"><path fill="none" stroke-width="1.3" stroke="#1a468b" d="M-14.609375 -38.25 C-14.609375 -7.1650951872440025, -14.609375 23.919809625511995, -14.609375 76 M-14.609375 -38.25 C-14.609375 6.919030971160204, -14.609375 52.08806194232041, -14.609375 76"></path></g><g class="divider"><path fill="none" stroke-width="1.3" stroke="#1a468b" d="M-79.984375 -0.5 C-35.50076243137565 -0.5, 8.982850137248704 -0.5, 79.984375 -0.5 M-79.984375 -0.5 C-41.01166095336978 -0.5, -2.038946906739554 -0.5, 79.984375 -0.5"></path></g><g class="divider"><path fill="none" stroke-width="1.3" stroke="#1a468b" d="M-79.984375 37.25 C-45.965798065334795 37.25, -11.94722113066959 37.25, 79.984375 37.25 M-79.984375 37.25 C-37.4973822160182 37.25, 4.989610567963595 37.25, 79.984375 37.25"></path></g><g class="divider"><path fill="none" stroke-width="1.3" stroke="#1a468b" d="M-79.984375 -38.25 C-25.02416986685033 -38.25, 29.936035266299342 -38.25, 79.984375 -38.25 M-79.984375 -38.25 C-16.404199282567177 -38.25, 47.175976434865646 -38.25, 79.984375 -38.25"></path></g></g></g></g></g></svg>